;TYPE=PLATED
;Layer: PTH_Through_Via
;EasyEDA Pro v2.2.45.4, 2025-12-23 10:37:26
;Gerber Generator version 0.3
M48
METRIC,LZ,0000.00000
;Hole size 1 = 0.30500 METRIC
T01C0.30500
%
G05
G90
T01
X9.01823Y-8.23633
X7.11831Y-8.23633
X10.6045Y-5.5245
X5.20483Y-4.15059
X8.06827Y-10.53452
X12.065Y-11.34008
X5.52134Y-2.28357
X5.52134Y-3.52912
X5.15277Y-1.64859
X5.12407Y-2.91859
X15.2462Y-0.889
X12.7062Y-0.889
X14.605Y-0.889
X13.9762Y-0.889
X13.32411Y-0.889
X15.2462Y-6.85026
X12.7062Y-6.85026
X14.605Y-6.85026
X13.9762Y-6.85026
X13.32411Y-6.85026
X3.175Y-0.93172
X0.635Y-0.93172
X2.5338Y-0.93172
X1.905Y-0.93172
X1.25291Y-0.93172
X3.175Y-5.66407
X0.635Y-5.66407
X2.5338Y-5.66407
X1.905Y-5.66407
X1.25291Y-5.66407
X0.67027Y-2.032
X0.67027Y-4.572
X0.67027Y-2.6732
X0.67027Y-3.302
X0.67027Y-3.95409
X15.24Y-1.651
X15.24Y-2.921
X15.24Y-4.191
X15.24Y-5.461
X10.033Y-2.286
X10.668Y-1.651
X10.668Y-4.191
X10.65091Y-2.921
X10.0268Y-4.82166
X3.13177Y-9.51852
X1.86177Y-10.66152
X6.858Y-1.651
X6.858Y-5.5347
X8.73779Y-5.5347
X8.73779Y-1.62533
X6.88767Y-3.59664
X7.874Y-2.794
X7.874Y-4.39246
X9.017Y-2.794
X10.0268Y-3.556
X0.605Y-11.75309
X3.13177Y-11.75309
X0.605Y-9.51852
X9.017Y-4.39246
X1.3523Y-2.032
X1.3523Y-3.302
X1.3523Y-4.572
M30