G04 Layer: TopPasteMaskLayer*
G04 EasyEDA Pro v2.2.45.4, 2025-12-23 10:37:26*
G04 Gerber Generator version 0.3*
G04 Scale: 100 percent, Rotated: No, Reflected: No*
G04 Dimensions in millimeters*
G04 Leading zeros omitted, absolute positions, 4 integers and 5 decimals*
G04 Generated by one-click*
%FSLAX45Y45*%
%MOMM*%
%ADD10R,0.532X1.07201*%
%ADD11C,0.3377*%
G75*


G04 PolygonModel Start*
G36*
G01X1076602Y-1061496D02*
G01X1031601Y-1061496D01*
G01X1026602Y-1054499D01*
G01X1026602Y-1006498D01*
G01X1031601Y-1001497D01*
G01X1076602Y-1001497D01*
G01X1081601Y-1006498D01*
G01X1081601Y-1054499D01*
G01X1076602Y-1061496D01*
G37*
G36*
G01X1076602Y-1157498D02*
G01X1031601Y-1157498D01*
G01X1026602Y-1152497D01*
G01X1026602Y-1104499D01*
G01X1031601Y-1097498D01*
G01X1076602Y-1097498D01*
G01X1081601Y-1104499D01*
G01X1081601Y-1152497D01*
G01X1076602Y-1157498D01*
G37*
G36*
G01X452399Y-574855D02*
G01X452399Y-516854D01*
G01X572399Y-516854D01*
G01X572399Y-574855D01*
G01X452399Y-574855D01*
G37*
G36*
G01X452399Y-447855D02*
G01X452399Y-389854D01*
G01X572399Y-389854D01*
G01X572399Y-447855D01*
G01X452399Y-447855D01*
G37*
G36*
G01X452399Y-320855D02*
G01X452399Y-262854D01*
G01X572399Y-262854D01*
G01X572399Y-320855D01*
G01X452399Y-320855D01*
G37*
G36*
G01X452399Y-193855D02*
G01X452399Y-135854D01*
G01X572399Y-135854D01*
G01X572399Y-193855D01*
G01X452399Y-193855D01*
G37*
G36*
G01X1122398Y-136362D02*
G01X1041999Y-136362D01*
G01X1041999Y-135600D01*
G01X662000Y-135600D01*
G01X662000Y-575600D01*
G01X1041999Y-575600D01*
G01X1041999Y-575348D01*
G01X1122398Y-575348D01*
G01X1122398Y-517347D01*
G01X1041999Y-517347D01*
G01X1041999Y-448363D01*
G01X1122398Y-448363D01*
G01X1122398Y-390362D01*
G01X1041999Y-390362D01*
G01X1041999Y-321363D01*
G01X1122398Y-321363D01*
G01X1122398Y-263362D01*
G01X1041999Y-263362D01*
G01X1041999Y-194363D01*
G01X1122398Y-194363D01*
G01X1122398Y-136362D01*
G37*
G36*
G01X1229002Y-1061496D02*
G01X1184001Y-1061496D01*
G01X1179002Y-1054499D01*
G01X1179002Y-1006498D01*
G01X1184001Y-1001497D01*
G01X1229002Y-1001497D01*
G01X1234001Y-1006498D01*
G01X1234001Y-1054499D01*
G01X1229002Y-1061496D01*
G37*
G36*
G01X1229002Y-1157498D02*
G01X1184001Y-1157498D01*
G01X1179002Y-1152497D01*
G01X1179002Y-1104499D01*
G01X1184001Y-1097498D01*
G01X1229002Y-1097498D01*
G01X1234001Y-1104499D01*
G01X1234001Y-1152497D01*
G01X1229002Y-1157498D01*
G37*
G36*
G01X200302Y-743996D02*
G01X155301Y-743996D01*
G01X150302Y-736999D01*
G01X150302Y-688998D01*
G01X155301Y-683997D01*
G01X200302Y-683997D01*
G01X205301Y-688998D01*
G01X205301Y-736999D01*
G01X200302Y-743996D01*
G37*
G36*
G01X200302Y-839998D02*
G01X155301Y-839998D01*
G01X150302Y-834997D01*
G01X150302Y-786999D01*
G01X155301Y-779998D01*
G01X200302Y-779998D01*
G01X205301Y-786999D01*
G01X205301Y-834997D01*
G01X200302Y-839998D01*
G37*

G04 Pad Start*
G54D10*
G01X711831Y-1053452D03*
G01X806827Y-1053452D03*
G01X901823Y-1053452D03*
G01X901823Y-823633D03*
G01X806827Y-823633D03*
G01X711831Y-823633D03*
G04 Pad End*

M02*

