ISO-10303-21;
HEADER;
/*Generated by software containing ST-Developer
 * from STEP Tools, Inc. (www.steptools.com) 
 */
/*OPTION: using custom renumber hook */
/*description */
/*implementation_level */
FILE_DESCRIPTION(('STEP AP242 Edition 2','STEP AP242 Edition 2''CAx-IF Rec.Pracs.---Representation and Presentation of Product Manufa
cturing Information (PMI)---4.0---2014-10-13','STEP AP242 Edition 2''CAx-IF Rec.Pracs.---Representation and Presentation of Product Manufa
cturing Information (PMI)---4.0---2014-10-13''CAx-IF Rec.Pracs.---3D Tessellated Geometry---0.4---2014-09-14','STEP AP242 Edition 2''CAx-IF Rec.Pracs.---Representation and Presentation of Product Manufa
cturing Information (PMI)---4.0---2014-10-13''CAx-IF Rec.Pracs.---3D Tessellated Geometry---0.4---2014-09-14''2;1','STEP AP242 Edition 2''CAx-IF Rec.Pracs.---Representation and Presentation of Product Manufa
cturing Information (PMI)---4.0---2014-10-13''CAx-IF Rec.Pracs.---3D Tessellated Geometry---0.4---2014-09-14''2;1''CAx-IF Rec.Pracs.---User Defined Attributes---1.5---2016-08-15'),'2;1');
/*name */
/*time_stamp */
/*author */
/*organization */
/*preprocessor_version */
/*originating_system */
/*authorisation */
FILE_NAME('/vol/tmp/translate-11195748783643548787/Part Studio 1.step','2026-03-30T19:09:24',(''),(''),'ST-DEVELOPER v20','ONSHAPE BY PTC INC, 1.212','  ');
FILE_SCHEMA(('AP242_MANAGED_MODEL_BASED_3D_ENGINEERING_MIM_LF { 1 0 10303 442 3 1 4 }'));
ENDSEC;
DATA;
#10=SHAPE_REPRESENTATION_RELATIONSHIP('','',#351,#11);
#11=ADVANCED_BREP_SHAPE_REPRESENTATION('',(#349),#759);
#12=B_SPLINE_SURFACE_WITH_KNOTS('',1,3,((#582,#583,#584,#585,#586,#587,
#588,#589,#590,#591,#592,#593,#594,#595,#596,#597,#598,#599,#600,#601,#602,
#603),(#604,#605,#606,#607,#608,#609,#610,#611,#612,#613,#614,#615,#616,
#617,#618,#619,#620,#621,#622,#623,#624,#625)),.RULED_SURF.,.F.,.F.,.F.,(2,2),(4,2,2,2,2,2,2,2,2,2,4),(0.169110360245285,0.980793559651917),(0.,0.000101761035548256,0.000203522071096513,0.000254402588870641,0.000305283106644769,0.000356163624418897,0.000407044142193025,0.000508805177741282,0.000610566213289538,0.000712327248837794,0.000814088284386051),.UNSPECIFIED.);
#13=B_SPLINE_SURFACE_WITH_KNOTS('',1,3,((#626,#627,#628,#629,#630,#631,
#632,#633,#634,#635,#636,#637,#638,#639,#640,#641,#642,#643,#644,#645,#646,
#647),(#648,#649,#650,#651,#652,#653,#654,#655,#656,#657,#658,#659,#660,
#661,#662,#663,#664,#665,#666,#667,#668,#669)),.RULED_SURF.,.F.,.F.,.F.,(2,2),(4,2,2,2,2,2,2,2,2,2,4),(0.169110360245285,0.980793559651963),(0.,0.000101761035548256,0.000203522071096512,0.00025440258887064,0.000305283106644768,0.000356163624418896,0.000407044142193024,0.00050880517774128,0.000610566213289536,0.000712327248837792,0.000814088284386048),.UNSPECIFIED.);
#14=B_SPLINE_SURFACE_WITH_KNOTS('',1,3,((#670,#671,#672,#673,#674,#675,
#676,#677,#678,#679,#680,#681,#682,#683,#684,#685,#686,#687,#688,#689,#690,
#691),(#692,#693,#694,#695,#696,#697,#698,#699,#700,#701,#702,#703,#704,
#705,#706,#707,#708,#709,#710,#711,#712,#713)),.RULED_SURF.,.F.,.F.,.F.,(2,2),(4,2,2,2,2,2,2,2,2,2,4),(0.168615984402674,0.997076023391813),(0.,0.000101761035548256,0.000203522071096513,0.000254402588870641,0.00030528310664477,0.000356163624418897,0.000407044142193026,0.000508805177741282,0.000610566213289539,0.000712327248837795,0.000814088284386052),.UNSPECIFIED.);
#15=B_SPLINE_SURFACE_WITH_KNOTS('',1,3,((#714,#715,#716,#717,#718,#719,
#720,#721,#722,#723,#724,#725,#726,#727,#728,#729,#730,#731,#732,#733,#734,
#735),(#736,#737,#738,#739,#740,#741,#742,#743,#744,#745,#746,#747,#748,
#749,#750,#751,#752,#753,#754,#755,#756,#757)),.RULED_SURF.,.F.,.F.,.F.,(2,2),(4,2,2,2,2,2,2,2,2,2,4),(0.168615984402674,0.997076023391813),(0.,0.000101761035548257,0.000203522071096515,0.000254402588870643,0.000305283106644772,0.0003561636244189,0.000407044142193028,0.000508805177741286,0.000610566213289543,0.0007123272488378,0.000814088284386057),.UNSPECIFIED.);
#16=B_SPLINE_CURVE_WITH_KNOTS('',3,(#434,#435,#436,#437,#438,#439),.UNSPECIFIED.,.F.,.F.,(4,1,1,4),(0.,0.000317671179743945,0.00063534235948789,0.00127068471897578),.UNSPECIFIED.);
#17=B_SPLINE_CURVE_WITH_KNOTS('',3,(#449,#450,#451,#452,#453),.UNSPECIFIED.,.F.,.F.,(4,1,4),(0.,0.000409691830251604,0.000819383660503208),.UNSPECIFIED.);
#18=B_SPLINE_CURVE_WITH_KNOTS('',3,(#457,#458,#459,#460,#461),.UNSPECIFIED.,.F.,.F.,(4,1,4),(0.,0.000409691830244236,0.000819383660488471),.UNSPECIFIED.);
#19=B_SPLINE_CURVE_WITH_KNOTS('',3,(#473,#474,#475,#476),.UNSPECIFIED.,.F.,.F.,(4,4),(-0.0171670687329879,0.),.UNSPECIFIED.);
#20=B_SPLINE_CURVE_WITH_KNOTS('',3,(#480,#481,#482,#483),.UNSPECIFIED.,.F.,.F.,(4,4),(-0.0171670687329879,0.),.UNSPECIFIED.);
#21=B_SPLINE_CURVE_WITH_KNOTS('',3,(#488,#489,#490,#491),.UNSPECIFIED.,.F.,.F.,(4,4),(-0.0171670687329879,-0.000496835166131859),.UNSPECIFIED.);
#22=B_SPLINE_CURVE_WITH_KNOTS('',3,(#494,#495,#496,#497),.UNSPECIFIED.,.F.,.F.,(4,4),(-0.0171670687329879,0.),.UNSPECIFIED.);
#23=B_SPLINE_CURVE_WITH_KNOTS('',3,(#502,#503,#504,#505),.UNSPECIFIED.,.F.,.F.,(4,4),(-0.0171670687329879,-0.00117495701169901),.UNSPECIFIED.);
#24=B_SPLINE_CURVE_WITH_KNOTS('',3,(#514,#515,#516,#517),.UNSPECIFIED.,.F.,.F.,(4,4),(-0.0171670687329879,-0.00117495701169901),.UNSPECIFIED.);
#25=B_SPLINE_CURVE_WITH_KNOTS('',3,(#519,#520,#521,#522),.UNSPECIFIED.,.F.,.F.,(4,4),(-0.0171670687329879,-0.000496835166131859),.UNSPECIFIED.);
#26=B_SPLINE_CURVE_WITH_KNOTS('',3,(#526,#527,#528,#529),.UNSPECIFIED.,.F.,.F.,(4,4),(-0.0171670687329879,0.),.UNSPECIFIED.);
#27=B_SPLINE_CURVE_WITH_KNOTS('',3,(#531,#532,#533,#534,#535),.UNSPECIFIED.,.F.,.F.,(4,1,4),(0.,0.00227395091345802,0.00454790182691605),.UNSPECIFIED.);
#28=B_SPLINE_CURVE_WITH_KNOTS('',3,(#536,#537,#538,#539,#540),.UNSPECIFIED.,.F.,.F.,(4,1,4),(0.,0.00227395091345746,0.00454790182691492),.UNSPECIFIED.);
#29=B_SPLINE_CURVE_WITH_KNOTS('',3,(#541,#542,#543,#544,#545),.UNSPECIFIED.,.F.,.F.,(4,1,4),(0.,0.00227393502813484,0.00454787005626968),.UNSPECIFIED.);
#30=B_SPLINE_CURVE_WITH_KNOTS('',3,(#546,#547,#548,#549,#550),.UNSPECIFIED.,.F.,.F.,(4,1,4),(0.,0.00227393502813317,0.00454787005626633),.UNSPECIFIED.);
#31=B_SPLINE_CURVE_WITH_KNOTS('',3,(#552,#553,#554,#555,#556,#557),.UNSPECIFIED.,.F.,.F.,(4,1,1,4),(0.,0.000631867613530068,0.000947801420295101,0.00126373522706014),.UNSPECIFIED.);
#32=ORIENTED_EDGE('',*,*,#128,.F.);
#33=ORIENTED_EDGE('',*,*,#129,.T.);
#34=ORIENTED_EDGE('',*,*,#130,.F.);
#35=ORIENTED_EDGE('',*,*,#131,.F.);
#36=ORIENTED_EDGE('',*,*,#132,.T.);
#37=ORIENTED_EDGE('',*,*,#133,.F.);
#38=ORIENTED_EDGE('',*,*,#134,.T.);
#39=ORIENTED_EDGE('',*,*,#135,.F.);
#40=ORIENTED_EDGE('',*,*,#136,.T.);
#41=ORIENTED_EDGE('',*,*,#137,.T.);
#42=ORIENTED_EDGE('',*,*,#138,.T.);
#43=ORIENTED_EDGE('',*,*,#139,.F.);
#44=ORIENTED_EDGE('',*,*,#140,.T.);
#45=ORIENTED_EDGE('',*,*,#141,.T.);
#46=ORIENTED_EDGE('',*,*,#131,.T.);
#47=ORIENTED_EDGE('',*,*,#135,.T.);
#48=ORIENTED_EDGE('',*,*,#142,.T.);
#49=ORIENTED_EDGE('',*,*,#143,.F.);
#50=ORIENTED_EDGE('',*,*,#144,.T.);
#51=ORIENTED_EDGE('',*,*,#145,.T.);
#52=ORIENTED_EDGE('',*,*,#146,.T.);
#53=ORIENTED_EDGE('',*,*,#147,.T.);
#54=ORIENTED_EDGE('',*,*,#137,.F.);
#55=ORIENTED_EDGE('',*,*,#148,.T.);
#56=ORIENTED_EDGE('',*,*,#149,.T.);
#57=ORIENTED_EDGE('',*,*,#150,.T.);
#58=ORIENTED_EDGE('',*,*,#128,.T.);
#59=ORIENTED_EDGE('',*,*,#151,.F.);
#60=ORIENTED_EDGE('',*,*,#152,.F.);
#61=ORIENTED_EDGE('',*,*,#153,.T.);
#62=ORIENTED_EDGE('',*,*,#154,.T.);
#63=ORIENTED_EDGE('',*,*,#155,.T.);
#64=ORIENTED_EDGE('',*,*,#130,.T.);
#65=ORIENTED_EDGE('',*,*,#156,.T.);
#66=ORIENTED_EDGE('',*,*,#157,.F.);
#67=ORIENTED_EDGE('',*,*,#158,.T.);
#68=ORIENTED_EDGE('',*,*,#133,.T.);
#69=ORIENTED_EDGE('',*,*,#157,.T.);
#70=ORIENTED_EDGE('',*,*,#159,.T.);
#71=ORIENTED_EDGE('',*,*,#149,.F.);
#72=ORIENTED_EDGE('',*,*,#160,.T.);
#73=ORIENTED_EDGE('',*,*,#145,.F.);
#74=ORIENTED_EDGE('',*,*,#161,.T.);
#75=ORIENTED_EDGE('',*,*,#143,.T.);
#76=ORIENTED_EDGE('',*,*,#162,.T.);
#77=ORIENTED_EDGE('',*,*,#147,.F.);
#78=ORIENTED_EDGE('',*,*,#163,.T.);
#79=ORIENTED_EDGE('',*,*,#154,.F.);
#80=ORIENTED_EDGE('',*,*,#164,.F.);
#81=ORIENTED_EDGE('',*,*,#138,.F.);
#82=ORIENTED_EDGE('',*,*,#140,.F.);
#83=ORIENTED_EDGE('',*,*,#165,.F.);
#84=ORIENTED_EDGE('',*,*,#166,.T.);
#85=ORIENTED_EDGE('',*,*,#167,.T.);
#86=ORIENTED_EDGE('',*,*,#139,.T.);
#87=ORIENTED_EDGE('',*,*,#164,.T.);
#88=ORIENTED_EDGE('',*,*,#153,.F.);
#89=ORIENTED_EDGE('',*,*,#168,.F.);
#90=ORIENTED_EDGE('',*,*,#169,.F.);
#91=ORIENTED_EDGE('',*,*,#170,.F.);
#92=ORIENTED_EDGE('',*,*,#165,.T.);
#93=ORIENTED_EDGE('',*,*,#169,.T.);
#94=ORIENTED_EDGE('',*,*,#171,.T.);
#95=ORIENTED_EDGE('',*,*,#172,.F.);
#96=ORIENTED_EDGE('',*,*,#173,.F.);
#97=ORIENTED_EDGE('',*,*,#141,.F.);
#98=ORIENTED_EDGE('',*,*,#167,.F.);
#99=ORIENTED_EDGE('',*,*,#174,.T.);
#100=ORIENTED_EDGE('',*,*,#172,.T.);
#101=ORIENTED_EDGE('',*,*,#175,.T.);
#102=ORIENTED_EDGE('',*,*,#151,.T.);
#103=ORIENTED_EDGE('',*,*,#132,.F.);
#104=ORIENTED_EDGE('',*,*,#166,.F.);
#105=ORIENTED_EDGE('',*,*,#170,.T.);
#106=ORIENTED_EDGE('',*,*,#173,.T.);
#107=ORIENTED_EDGE('',*,*,#174,.F.);
#108=ORIENTED_EDGE('',*,*,#152,.T.);
#109=ORIENTED_EDGE('',*,*,#175,.F.);
#110=ORIENTED_EDGE('',*,*,#171,.F.);
#111=ORIENTED_EDGE('',*,*,#168,.T.);
#112=ORIENTED_EDGE('',*,*,#129,.F.);
#113=ORIENTED_EDGE('',*,*,#150,.F.);
#114=ORIENTED_EDGE('',*,*,#159,.F.);
#115=ORIENTED_EDGE('',*,*,#156,.F.);
#116=ORIENTED_EDGE('',*,*,#163,.F.);
#117=ORIENTED_EDGE('',*,*,#146,.F.);
#118=ORIENTED_EDGE('',*,*,#160,.F.);
#119=ORIENTED_EDGE('',*,*,#155,.F.);
#120=ORIENTED_EDGE('',*,*,#134,.F.);
#121=ORIENTED_EDGE('',*,*,#158,.F.);
#122=ORIENTED_EDGE('',*,*,#162,.F.);
#123=ORIENTED_EDGE('',*,*,#142,.F.);
#124=ORIENTED_EDGE('',*,*,#136,.F.);
#125=ORIENTED_EDGE('',*,*,#144,.F.);
#126=ORIENTED_EDGE('',*,*,#161,.F.);
#127=ORIENTED_EDGE('',*,*,#148,.F.);
#128=EDGE_CURVE('',#176,#177,#208,.F.);
#129=EDGE_CURVE('',#176,#178,#16,.T.);
#130=EDGE_CURVE('',#179,#178,#209,.T.);
#131=EDGE_CURVE('',#180,#179,#210,.T.);
#132=EDGE_CURVE('',#180,#177,#211,.T.);
#133=EDGE_CURVE('',#181,#179,#212,.T.);
#134=EDGE_CURVE('',#181,#182,#17,.T.);
#135=EDGE_CURVE('',#183,#182,#213,.T.);
#136=EDGE_CURVE('',#183,#184,#18,.T.);
#137=EDGE_CURVE('',#184,#185,#214,.F.);
#138=EDGE_CURVE('',#185,#186,#215,.T.);
#139=EDGE_CURVE('',#187,#186,#216,.T.);
#140=EDGE_CURVE('',#187,#188,#217,.T.);
#141=EDGE_CURVE('',#188,#180,#218,.T.);
#142=EDGE_CURVE('',#182,#189,#19,.F.);
#143=EDGE_CURVE('',#190,#189,#219,.T.);
#144=EDGE_CURVE('',#190,#183,#20,.T.);
#145=EDGE_CURVE('',#191,#192,#220,.F.);
#146=EDGE_CURVE('',#192,#193,#21,.T.);
#147=EDGE_CURVE('',#193,#185,#221,.F.);
#148=EDGE_CURVE('',#184,#191,#22,.F.);
#149=EDGE_CURVE('',#194,#195,#222,.F.);
#150=EDGE_CURVE('',#195,#176,#23,.T.);
#151=EDGE_CURVE('',#196,#177,#223,.F.);
#152=EDGE_CURVE('',#197,#196,#224,.F.);
#153=EDGE_CURVE('',#197,#198,#225,.F.);
#154=EDGE_CURVE('',#198,#199,#226,.F.);
#155=EDGE_CURVE('',#199,#194,#24,.F.);
#156=EDGE_CURVE('',#178,#200,#25,.F.);
#157=EDGE_CURVE('',#201,#200,#227,.T.);
#158=EDGE_CURVE('',#201,#181,#26,.T.);
#159=EDGE_CURVE('',#200,#195,#27,.T.);
#160=EDGE_CURVE('',#194,#192,#28,.T.);
#161=EDGE_CURVE('',#191,#190,#29,.T.);
#162=EDGE_CURVE('',#189,#201,#30,.T.);
#163=EDGE_CURVE('',#193,#199,#31,.T.);
#164=EDGE_CURVE('',#186,#198,#228,.T.);
#165=EDGE_CURVE('',#202,#187,#229,.T.);
#166=EDGE_CURVE('',#202,#203,#230,.T.);
#167=EDGE_CURVE('',#203,#188,#231,.T.);
#168=EDGE_CURVE('',#204,#197,#232,.T.);
#169=EDGE_CURVE('',#205,#204,#233,.F.);
#170=EDGE_CURVE('',#202,#205,#234,.T.);
#171=EDGE_CURVE('',#204,#206,#235,.F.);
#172=EDGE_CURVE('',#207,#206,#236,.F.);
#173=EDGE_CURVE('',#205,#207,#237,.F.);
#174=EDGE_CURVE('',#203,#207,#238,.T.);
#175=EDGE_CURVE('',#206,#196,#239,.T.);
#176=VERTEX_POINT('',#432);
#177=VERTEX_POINT('',#433);
#178=VERTEX_POINT('',#440);
#179=VERTEX_POINT('',#442);
#180=VERTEX_POINT('',#444);
#181=VERTEX_POINT('',#448);
#182=VERTEX_POINT('',#454);
#183=VERTEX_POINT('',#456);
#184=VERTEX_POINT('',#462);
#185=VERTEX_POINT('',#464);
#186=VERTEX_POINT('',#466);
#187=VERTEX_POINT('',#468);
#188=VERTEX_POINT('',#470);
#189=VERTEX_POINT('',#477);
#190=VERTEX_POINT('',#479);
#191=VERTEX_POINT('',#486);
#192=VERTEX_POINT('',#487);
#193=VERTEX_POINT('',#492);
#194=VERTEX_POINT('',#500);
#195=VERTEX_POINT('',#501);
#196=VERTEX_POINT('',#507);
#197=VERTEX_POINT('',#509);
#198=VERTEX_POINT('',#511);
#199=VERTEX_POINT('',#513);
#200=VERTEX_POINT('',#523);
#201=VERTEX_POINT('',#525);
#202=VERTEX_POINT('',#561);
#203=VERTEX_POINT('',#563);
#204=VERTEX_POINT('',#567);
#205=VERTEX_POINT('',#569);
#206=VERTEX_POINT('',#573);
#207=VERTEX_POINT('',#575);
#208=LINE('',#431,#240);
#209=LINE('',#441,#241);
#210=LINE('',#443,#242);
#211=LINE('',#445,#243);
#212=LINE('',#447,#244);
#213=LINE('',#455,#245);
#214=LINE('',#463,#246);
#215=LINE('',#465,#247);
#216=LINE('',#467,#248);
#217=LINE('',#469,#249);
#218=LINE('',#471,#250);
#219=LINE('',#478,#251);
#220=LINE('',#485,#252);
#221=LINE('',#493,#253);
#222=LINE('',#499,#254);
#223=LINE('',#506,#255);
#224=LINE('',#508,#256);
#225=LINE('',#510,#257);
#226=LINE('',#512,#258);
#227=LINE('',#524,#259);
#228=LINE('',#558,#260);
#229=LINE('',#560,#261);
#230=LINE('',#562,#262);
#231=LINE('',#564,#263);
#232=LINE('',#566,#264);
#233=LINE('',#568,#265);
#234=LINE('',#570,#266);
#235=LINE('',#572,#267);
#236=LINE('',#574,#268);
#237=LINE('',#576,#269);
#238=LINE('',#578,#270);
#239=LINE('',#579,#271);
#240=VECTOR('',#371,1.);
#241=VECTOR('',#372,1.);
#242=VECTOR('',#373,1.);
#243=VECTOR('',#374,1.);
#244=VECTOR('',#377,1.);
#245=VECTOR('',#378,1.);
#246=VECTOR('',#379,1.);
#247=VECTOR('',#380,1.);
#248=VECTOR('',#381,1.);
#249=VECTOR('',#382,1.);
#250=VECTOR('',#383,1.);
#251=VECTOR('',#386,1.);
#252=VECTOR('',#389,1.);
#253=VECTOR('',#390,1.);
#254=VECTOR('',#393,1.);
#255=VECTOR('',#394,1.);
#256=VECTOR('',#395,1.);
#257=VECTOR('',#396,1.);
#258=VECTOR('',#397,1.);
#259=VECTOR('',#400,1.);
#260=VECTOR('',#405,1.);
#261=VECTOR('',#408,1.);
#262=VECTOR('',#409,1.);
#263=VECTOR('',#410,1.);
#264=VECTOR('',#413,1.);
#265=VECTOR('',#414,1.);
#266=VECTOR('',#415,1.);
#267=VECTOR('',#418,1.);
#268=VECTOR('',#419,1.);
#269=VECTOR('',#420,1.);
#270=VECTOR('',#423,1.);
#271=VECTOR('',#424,1.);
#272=EDGE_LOOP('',(#32,#33,#34,#35,#36));
#273=EDGE_LOOP('',(#37,#38,#39,#40,#41,#42,#43,#44,#45,#46));
#274=EDGE_LOOP('',(#47,#48,#49,#50));
#275=EDGE_LOOP('',(#51,#52,#53,#54,#55));
#276=EDGE_LOOP('',(#56,#57,#58,#59,#60,#61,#62,#63));
#277=EDGE_LOOP('',(#64,#65,#66,#67,#68));
#278=EDGE_LOOP('',(#69,#70,#71,#72,#73,#74,#75,#76));
#279=EDGE_LOOP('',(#77,#78,#79,#80,#81));
#280=EDGE_LOOP('',(#82,#83,#84,#85));
#281=EDGE_LOOP('',(#86,#87,#88,#89,#90,#91,#92));
#282=EDGE_LOOP('',(#93,#94,#95,#96));
#283=EDGE_LOOP('',(#97,#98,#99,#100,#101,#102,#103));
#284=EDGE_LOOP('',(#104,#105,#106,#107));
#285=EDGE_LOOP('',(#108,#109,#110,#111));
#286=EDGE_LOOP('',(#112,#113,#114,#115));
#287=EDGE_LOOP('',(#116,#117,#118,#119));
#288=EDGE_LOOP('',(#120,#121,#122,#123));
#289=EDGE_LOOP('',(#124,#125,#126,#127));
#290=FACE_BOUND('',#272,.T.);
#291=FACE_BOUND('',#273,.T.);
#292=FACE_BOUND('',#274,.T.);
#293=FACE_BOUND('',#275,.T.);
#294=FACE_BOUND('',#276,.T.);
#295=FACE_BOUND('',#277,.T.);
#296=FACE_BOUND('',#278,.T.);
#297=FACE_BOUND('',#279,.T.);
#298=FACE_BOUND('',#280,.T.);
#299=FACE_BOUND('',#281,.T.);
#300=FACE_BOUND('',#282,.T.);
#301=FACE_BOUND('',#283,.T.);
#302=FACE_BOUND('',#284,.T.);
#303=FACE_BOUND('',#285,.T.);
#304=FACE_BOUND('',#286,.T.);
#305=FACE_BOUND('',#287,.T.);
#306=FACE_BOUND('',#288,.T.);
#307=FACE_BOUND('',#289,.T.);
#308=PLANE('',#353);
#309=PLANE('',#354);
#310=PLANE('',#355);
#311=PLANE('',#356);
#312=PLANE('',#357);
#313=PLANE('',#358);
#314=PLANE('',#359);
#315=PLANE('',#360);
#316=PLANE('',#361);
#317=PLANE('',#362);
#318=PLANE('',#363);
#319=PLANE('',#364);
#320=PLANE('',#365);
#321=PLANE('',#366);
#322=ADVANCED_FACE('',(#290),#308,.T.);
#323=ADVANCED_FACE('',(#291),#309,.T.);
#324=ADVANCED_FACE('',(#292),#310,.T.);
#325=ADVANCED_FACE('',(#293),#311,.T.);
#326=ADVANCED_FACE('',(#294),#312,.T.);
#327=ADVANCED_FACE('',(#295),#313,.T.);
#328=ADVANCED_FACE('',(#296),#314,.F.);
#329=ADVANCED_FACE('',(#297),#315,.T.);
#330=ADVANCED_FACE('',(#298),#316,.T.);
#331=ADVANCED_FACE('',(#299),#317,.F.);
#332=ADVANCED_FACE('',(#300),#318,.T.);
#333=ADVANCED_FACE('',(#301),#319,.T.);
#334=ADVANCED_FACE('',(#302),#320,.T.);
#335=ADVANCED_FACE('',(#303),#321,.T.);
#336=ADVANCED_FACE('',(#304),#12,.F.);
#337=ADVANCED_FACE('',(#305),#13,.F.);
#338=ADVANCED_FACE('',(#306),#14,.F.);
#339=ADVANCED_FACE('',(#307),#15,.F.);
#340=CLOSED_SHELL('',(#322,#323,#324,#325,#326,#327,#328,#329,#330,#331,#332,#333,#334,#335,#336,#337,#338,#339));
#341=STYLED_ITEM('',(#342),#349);
#342=PRESENTATION_STYLE_ASSIGNMENT((#343));
#343=SURFACE_STYLE_USAGE(.BOTH.,#344);
#344=SURFACE_SIDE_STYLE('',(#345));
#345=SURFACE_STYLE_FILL_AREA(#346);
#346=FILL_AREA_STYLE('',(#347));
#347=FILL_AREA_STYLE_COLOUR('',#348);
#348=COLOUR_RGB('',0.615686274509804,0.811764705882353,0.929411764705882);
#349=MANIFOLD_SOLID_BREP('Part 1',#340);
#350=SHAPE_DEFINITION_REPRESENTATION(#764,#351);
#351=SHAPE_REPRESENTATION('Part 1',(#352),#759);
#352=AXIS2_PLACEMENT_3D('',#429,#367,#368);
#353=AXIS2_PLACEMENT_3D('',#430,#369,#370);
#354=AXIS2_PLACEMENT_3D('',#446,#375,#376);
#355=AXIS2_PLACEMENT_3D('',#472,#384,#385);
#356=AXIS2_PLACEMENT_3D('',#484,#387,#388);
#357=AXIS2_PLACEMENT_3D('',#498,#391,#392);
#358=AXIS2_PLACEMENT_3D('',#518,#398,#399);
#359=AXIS2_PLACEMENT_3D('',#530,#401,#402);
#360=AXIS2_PLACEMENT_3D('',#551,#403,#404);
#361=AXIS2_PLACEMENT_3D('',#559,#406,#407);
#362=AXIS2_PLACEMENT_3D('',#565,#411,#412);
#363=AXIS2_PLACEMENT_3D('',#571,#416,#417);
#364=AXIS2_PLACEMENT_3D('',#577,#421,#422);
#365=AXIS2_PLACEMENT_3D('',#580,#425,#426);
#366=AXIS2_PLACEMENT_3D('',#581,#427,#428);
#367=DIRECTION('',(0.,0.,1.));
#368=DIRECTION('',(1.,0.,0.));
#369=DIRECTION('',(0.,-0.707106781186548,0.707106781186547));
#370=DIRECTION('',(-1.,0.,0.));
#371=DIRECTION('',(1.,0.,0.));
#372=DIRECTION('',(0.0988902636106802,-0.703640787534026,-0.703640787534027));
#373=DIRECTION('',(1.,0.,0.));
#374=DIRECTION('',(0.,-0.707106781186547,-0.707106781186548));
#375=DIRECTION('',(0.,0.,1.));
#376=DIRECTION('',(1.,0.,0.));
#377=DIRECTION('',(0.,-1.,0.));
#378=DIRECTION('',(1.,0.,0.));
#379=DIRECTION('',(0.,1.,0.));
#380=DIRECTION('',(1.,0.,0.));
#381=DIRECTION('',(0.,-1.,0.));
#382=DIRECTION('',(1.,0.,0.));
#383=DIRECTION('',(0.,-1.,0.));
#384=DIRECTION('',(0.,0.99026806874157,0.139173100960065));
#385=DIRECTION('',(0.,-0.139173100960065,0.99026806874157));
#386=DIRECTION('',(1.,0.,0.));
#387=DIRECTION('',(-0.99026806874157,0.,0.139173100960065));
#388=DIRECTION('',(0.139173100960065,0.,0.99026806874157));
#389=DIRECTION('',(0.,1.,0.));
#390=DIRECTION('',(-0.0988902636106802,-0.703640787534026,-0.703640787534027));
#391=DIRECTION('',(0.,-0.99026806874157,0.139173100960065));
#392=DIRECTION('',(0.,0.139173100960065,0.99026806874157));
#393=DIRECTION('',(-1.,0.,0.));
#394=DIRECTION('',(0.,-0.139173100960065,-0.99026806874157));
#395=DIRECTION('',(-1.,0.,0.));
#396=DIRECTION('',(0.,-0.139173100960065,-0.99026806874157));
#397=DIRECTION('',(1.,0.,0.));
#398=DIRECTION('',(0.99026806874157,0.,0.139173100960065));
#399=DIRECTION('',(-0.139173100960065,0.,0.99026806874157));
#400=DIRECTION('',(0.,-1.,0.));
#401=DIRECTION('',(0.,0.,1.));
#402=DIRECTION('',(1.,0.,0.));
#403=DIRECTION('',(0.,-0.707106781186548,0.707106781186547));
#404=DIRECTION('',(-1.,0.,0.));
#405=DIRECTION('',(0.,-0.707106781186547,-0.707106781186548));
#406=DIRECTION('',(0.,-1.,0.));
#407=DIRECTION('',(0.,0.,-1.));
#408=DIRECTION('',(0.,0.,1.));
#409=DIRECTION('',(1.,0.,0.));
#410=DIRECTION('',(0.,0.,1.));
#411=DIRECTION('',(-1.,0.,0.));
#412=DIRECTION('',(0.,0.,1.));
#413=DIRECTION('',(0.,-1.,0.));
#414=DIRECTION('',(0.,-0.258819045102521,-0.965925826289068));
#415=DIRECTION('',(0.,-1.,0.));
#416=DIRECTION('',(0.,0.965925826289068,-0.258819045102521));
#417=DIRECTION('',(0.,-0.258819045102521,-0.965925826289068));
#418=DIRECTION('',(-1.,0.,0.));
#419=DIRECTION('',(0.,-0.258819045102521,-0.965925826289068));
#420=DIRECTION('',(-1.,0.,0.));
#421=DIRECTION('',(-1.,0.,0.));
#422=DIRECTION('',(0.,0.,1.));
#423=DIRECTION('',(0.,-1.,0.));
#424=DIRECTION('',(0.,-1.,0.));
#425=DIRECTION('',(0.,0.,1.));
#426=DIRECTION('',(1.,0.,0.));
#427=DIRECTION('',(0.,0.,1.));
#428=DIRECTION('',(1.,0.,0.));
#429=CARTESIAN_POINT('',(0.,0.,0.));
#430=CARTESIAN_POINT('',(-0.00289262380125622,-0.00289027220412674,0.017));
#431=CARTESIAN_POINT('',(-0.00289262380125622,-0.00405379461493695,0.0158364775891898));
#432=CARTESIAN_POINT('',(0.0403493761987438,-0.00405379461501218,0.0158364775891146));
#433=CARTESIAN_POINT('',(0.0398573761987438,-0.00405379461493695,0.0158364775891898));
#434=CARTESIAN_POINT('',(0.0403493761987438,-0.00405379461493695,0.0158364775891898));
#435=CARTESIAN_POINT('',(0.0404564215562087,-0.00405379474924018,0.0158364774548866));
#436=CARTESIAN_POINT('',(0.0406718504236671,-0.00401652701753716,0.0158737451865897));
#437=CARTESIAN_POINT('',(0.0409428775692918,-0.00376539364662346,0.0161248785575025));
#438=CARTESIAN_POINT('',(0.0409475347405556,-0.00353178248670663,0.0163584897174213));
#439=CARTESIAN_POINT('',(0.0409265222894173,-0.00338227220412704,0.0165080000000009));
#440=CARTESIAN_POINT('',(0.0409265222894171,-0.00338227220412573,0.016508000000001));
#441=CARTESIAN_POINT('',(0.0405790433068779,-0.000909830772600727,0.018980441431526));
#442=CARTESIAN_POINT('',(0.0408573761987438,-0.00289027220412674,0.017));
#443=CARTESIAN_POINT('',(0.0408573761987438,-0.00289027220412674,0.017));
#444=CARTESIAN_POINT('',(0.0398573761987438,-0.00289027220412674,0.017));
#445=CARTESIAN_POINT('',(0.0398573761987438,-0.00289027220412674,0.017));
#446=CARTESIAN_POINT('',(-0.00289262380125622,0.00110972779587325,0.017));
#447=CARTESIAN_POINT('',(0.0408573761987438,0.00110972779587325,0.017));
#448=CARTESIAN_POINT('',(0.0408573761987438,0.00560172779587326,0.017));
#449=CARTESIAN_POINT('',(0.0408573761987438,0.00560172779587325,0.017));
#450=CARTESIAN_POINT('',(0.0408573763101075,0.00573960214245864,0.017));
#451=CARTESIAN_POINT('',(0.0407886648292913,0.00604049151943672,0.017));
#452=CARTESIAN_POINT('',(0.0404873965652444,0.00610972791830614,0.017));
#453=CARTESIAN_POINT('',(0.0403493761987438,0.00610972779587325,0.017));
#454=CARTESIAN_POINT('',(0.0403493761987438,0.00610972779587325,0.017));
#455=CARTESIAN_POINT('',(-0.00289262380125622,0.00610972779587325,0.017));
#456=CARTESIAN_POINT('',(-0.0461346238012562,0.00610972779587325,0.017));
#457=CARTESIAN_POINT('',(-0.0461346238012562,0.00610972779587325,0.017));
#458=CARTESIAN_POINT('',(-0.0462724981478413,0.00610972790724077,0.017));
#459=CARTESIAN_POINT('',(-0.0465733875248166,0.00604101642642119,0.017));
#460=CARTESIAN_POINT('',(-0.0466426239236902,0.00573974816237456,0.017));
#461=CARTESIAN_POINT('',(-0.0466426238012562,0.00560172779587326,0.017));
#462=CARTESIAN_POINT('',(-0.0466426238012562,0.00560172779587326,0.017));
#463=CARTESIAN_POINT('',(-0.0466426238012562,0.00110972779587325,0.017));
#464=CARTESIAN_POINT('',(-0.0466426238012562,-0.00289027220412674,0.017));
#465=CARTESIAN_POINT('',(0.0408573761987438,-0.00289027220412674,0.017));
#466=CARTESIAN_POINT('',(-0.0456426238012562,-0.00289027220412674,0.017));
#467=CARTESIAN_POINT('',(-0.0456426238012562,0.00210972779587326,0.017));
#468=CARTESIAN_POINT('',(-0.0456426238012562,0.00510972779587325,0.017));
#469=CARTESIAN_POINT('',(-0.00289262380125622,0.00510972779587326,0.017));
#470=CARTESIAN_POINT('',(0.0398573761987438,0.00510972779587326,0.017));
#471=CARTESIAN_POINT('',(0.0398573761987438,0.00210972779587326,0.017));
#472=CARTESIAN_POINT('',(-0.00289262380125622,0.00610972779587325,0.017));
#473=CARTESIAN_POINT('',(0.0403493761987438,0.00849892198582193,-5.71383218517241E-14));
#474=CARTESIAN_POINT('',(0.0403493761987438,0.00770252392250043,0.0056666666666661));
#475=CARTESIAN_POINT('',(0.0403493761987438,0.00690612585919475,0.0113333333332768));
#476=CARTESIAN_POINT('',(0.0403493761987438,0.00610972779587325,0.017));
#477=CARTESIAN_POINT('',(0.0403493761987438,0.00849892198580612,0.));
#478=CARTESIAN_POINT('',(-0.00289262380125622,0.00849892198581391,0.));
#479=CARTESIAN_POINT('',(-0.0461346238012562,0.00849892198580612,0.));
#480=CARTESIAN_POINT('',(-0.0461346238012562,0.00849892198582193,-5.71383218517241E-14));
#481=CARTESIAN_POINT('',(-0.0461346238012562,0.00770252392250043,0.0056666666666661));
#482=CARTESIAN_POINT('',(-0.0461346238012562,0.00690612585919475,0.0113333333332768));
#483=CARTESIAN_POINT('',(-0.0461346238012562,0.00610972779587325,0.017));
#484=CARTESIAN_POINT('',(-0.0466426238012562,0.00110972779587325,0.017));
#485=CARTESIAN_POINT('',(-0.0490318179911969,0.00110972779587325,0.));
#486=CARTESIAN_POINT('',(-0.0490318179911891,0.00560172779587326,0.));
#487=CARTESIAN_POINT('',(-0.0490318179911891,-0.00338227220412675,0.));
#488=CARTESIAN_POINT('',(-0.0490318179912049,-0.00338227220412674,-5.71383218517241E-14));
#489=CARTESIAN_POINT('',(-0.0482584686247956,-0.00338227220412674,0.00550266666651667));
#490=CARTESIAN_POINT('',(-0.0474851192584021,-0.00338227220412674,0.0110053333329779));
#491=CARTESIAN_POINT('',(-0.0467117698919928,-0.00338227220412674,0.0165079999995517));
#492=CARTESIAN_POINT('',(-0.0467117698919295,-0.00338227220412573,0.016508000000001));
#493=CARTESIAN_POINT('',(-0.0462147801158879,0.000153993800656162,0.0200442660047829));
#494=CARTESIAN_POINT('',(-0.0490318179912049,0.00560172779587325,-5.71383218517241E-14));
#495=CARTESIAN_POINT('',(-0.0482354199278834,0.00560172779587325,0.0056666666666661));
#496=CARTESIAN_POINT('',(-0.0474390218645777,0.00560172779587325,0.0113333333332768));
#497=CARTESIAN_POINT('',(-0.0466426238012562,0.00560172779587325,0.017));
#498=CARTESIAN_POINT('',(-0.00289262380125622,-0.00389027220412674,0.017));
#499=CARTESIAN_POINT('',(-0.00289262380125622,-0.0062794663940674,0.));
#500=CARTESIAN_POINT('',(-0.0461346238012562,-0.00627946639405961,0.));
#501=CARTESIAN_POINT('',(0.0403493761987438,-0.00627946639405961,0.));
#502=CARTESIAN_POINT('',(0.0403493761987438,-0.00627946639407543,-5.71383218517241E-14));
#503=CARTESIAN_POINT('',(0.0403493761987438,-0.0055375758010249,0.00527882586305625));
#504=CARTESIAN_POINT('',(0.0403493761987438,-0.00479568520800602,0.0105576517259445));
#505=CARTESIAN_POINT('',(0.0403493761987438,-0.00405379461495549,0.0158364775890579));
#506=CARTESIAN_POINT('',(0.0398573761987438,-0.00389027220412674,0.017));
#507=CARTESIAN_POINT('',(0.0398573761987438,-0.00410108345618033,0.0155));
#508=CARTESIAN_POINT('',(-0.00289262380125622,-0.00410108345618033,0.0155));
#509=CARTESIAN_POINT('',(-0.0456426238012562,-0.00410108345618033,0.0155));
#510=CARTESIAN_POINT('',(-0.0456426238012562,-0.00389027220412674,0.017));
#511=CARTESIAN_POINT('',(-0.0456426238012562,-0.00405379461493695,0.0158364775891898));
#512=CARTESIAN_POINT('',(-0.00289262380125622,-0.00405379461493695,0.0158364775891898));
#513=CARTESIAN_POINT('',(-0.0461346238012562,-0.00405379461501218,0.0158364775891146));
#514=CARTESIAN_POINT('',(-0.0461346238012562,-0.00627946639407543,-5.71383218517241E-14));
#515=CARTESIAN_POINT('',(-0.0461346238012562,-0.0055375758010249,0.00527882586305625));
#516=CARTESIAN_POINT('',(-0.0461346238012562,-0.00479568520800602,0.0105576517259445));
#517=CARTESIAN_POINT('',(-0.0461346238012562,-0.00405379461495549,0.0158364775890579));
#518=CARTESIAN_POINT('',(0.0408573761987438,0.00110972779587325,0.017));
#519=CARTESIAN_POINT('',(0.0432465703886925,-0.00338227220412674,-5.71383218517241E-14));
#520=CARTESIAN_POINT('',(0.0424732210222832,-0.00338227220412674,0.00550266666651667));
#521=CARTESIAN_POINT('',(0.0416998716558897,-0.00338227220412674,0.0110053333329779));
#522=CARTESIAN_POINT('',(0.0409265222894804,-0.00338227220412674,0.0165079999995517));
#523=CARTESIAN_POINT('',(0.0432465703886767,-0.00338227220412675,0.));
#524=CARTESIAN_POINT('',(0.0432465703886845,0.00110972779587325,0.));
#525=CARTESIAN_POINT('',(0.0432465703886767,0.00560172779587326,0.));
#526=CARTESIAN_POINT('',(0.0432465703886925,0.00560172779587325,-5.71383218517241E-14));
#527=CARTESIAN_POINT('',(0.042450172325371,0.00560172779587325,0.0056666666666661));
#528=CARTESIAN_POINT('',(0.0416537742620653,0.00560172779587325,0.0113333333332768));
#529=CARTESIAN_POINT('',(0.0408573761987438,0.00560172779587325,0.017));
#530=CARTESIAN_POINT('',(-0.00289262380125622,0.00110972779587325,0.));
#531=CARTESIAN_POINT('',(0.0432465703886844,-0.00338227220412675,-1.19262238973405E-18));
#532=CARTESIAN_POINT('',(0.0432465721240511,-0.0041513019848723,-1.19262238973405E-18));
#533=CARTESIAN_POINT('',(0.0426607389942903,-0.0056861375663451,-1.32265645472154E-19));
#534=CARTESIAN_POINT('',(0.0411188094266921,-0.0062794680689272,0.));
#535=CARTESIAN_POINT('',(0.0403493761987438,-0.0062794663940674,0.));
#536=CARTESIAN_POINT('',(-0.0461346238012562,-0.0062794663940674,3.25260651745651E-19));
#537=CARTESIAN_POINT('',(-0.0469036535820016,-0.0062794681294325,3.25260651745651E-19));
#538=CARTESIAN_POINT('',(-0.0484384891634745,-0.00569363499967408,-8.04318197666707E-19));
#539=CARTESIAN_POINT('',(-0.0490318196660568,-0.00415170543207509,2.16840434497101E-19));
#540=CARTESIAN_POINT('',(-0.0490318179911969,-0.00338227220412675,2.16840434497101E-19));
#541=CARTESIAN_POINT('',(-0.0490318179911969,0.00560172779587326,9.75781955236954E-19));
#542=CARTESIAN_POINT('',(-0.049031819726564,0.00637075771361423,9.75781955236954E-19));
#543=CARTESIAN_POINT('',(-0.0484459908362729,0.00790558814490515,-1.72179062051092E-20));
#544=CARTESIAN_POINT('',(-0.0469040584171619,0.00849892366067635,2.16840434497101E-19));
#545=CARTESIAN_POINT('',(-0.0461346238012562,0.00849892198581391,2.16840434497101E-19));
#546=CARTESIAN_POINT('',(0.0403493761987438,0.00849892198581391,-4.33680868994202E-19));
#547=CARTESIAN_POINT('',(0.0411184061164842,0.00849892372117847,-4.33680868994202E-19));
#548=CARTESIAN_POINT('',(0.0426532365477774,0.00791309483089255,-3.25260651745651E-19));
#549=CARTESIAN_POINT('',(0.0432465720635417,0.00637116241177878,-2.16840434497101E-19));
#550=CARTESIAN_POINT('',(0.0432465703886844,0.00560172779587325,-2.16840434497101E-19));
#551=CARTESIAN_POINT('',(-0.00289262380125622,-0.00289027220412674,0.017));
#552=CARTESIAN_POINT('',(-0.0467117698919296,-0.00338227220412649,0.016508000000001));
#553=CARTESIAN_POINT('',(-0.0467327703047099,-0.00353169691435168,0.0163585752897758));
#554=CARTESIAN_POINT('',(-0.0467276141786079,-0.00376552582861975,0.0161247463755068));
#555=CARTESIAN_POINT('',(-0.0464581290954503,-0.00401608353107725,0.0158741886730495));
#556=CARTESIAN_POINT('',(-0.0462417721235449,-0.004053794759274,0.0158364774448527));
#557=CARTESIAN_POINT('',(-0.0461346238012562,-0.00405379461493695,0.0158364775891898));
#558=CARTESIAN_POINT('',(-0.0456426238012562,-0.00289027220412674,0.017));
#559=CARTESIAN_POINT('',(-0.00289262380125622,0.00510972779587326,0.013));
#560=CARTESIAN_POINT('',(-0.0456426238012562,0.00510972779587325,0.013));
#561=CARTESIAN_POINT('',(-0.0456426238012562,0.00510972779587325,0.013));
#562=CARTESIAN_POINT('',(-0.00289262380125622,0.00510972779587326,0.013));
#563=CARTESIAN_POINT('',(0.0398573761987438,0.00510972779587326,0.013));
#564=CARTESIAN_POINT('',(0.0398573761987438,0.00510972779587326,0.013));
#565=CARTESIAN_POINT('',(-0.0456426238012562,0.00210972779587326,0.013));
#566=CARTESIAN_POINT('',(-0.0456426238012562,-0.00289027220412673,0.0155));
#567=CARTESIAN_POINT('',(-0.0456426238012562,-0.00022039922304893,0.0155));
#568=CARTESIAN_POINT('',(-0.0456426238012562,-0.000689310309803395,0.01375));
#569=CARTESIAN_POINT('',(-0.0456426238012562,-0.000890272204126737,0.013));
#570=CARTESIAN_POINT('',(-0.0456426238012562,0.00210972779587326,0.013));
#571=CARTESIAN_POINT('',(-0.00289262380125622,-0.000890272204126737,0.013));
#572=CARTESIAN_POINT('',(-0.00289262380125622,-0.00022039922304893,0.0155));
#573=CARTESIAN_POINT('',(0.0398573761987438,-0.00022039922304893,0.0155));
#574=CARTESIAN_POINT('',(0.0398573761987438,-0.000689310309803395,0.01375));
#575=CARTESIAN_POINT('',(0.0398573761987438,-0.000890272204126737,0.013));
#576=CARTESIAN_POINT('',(-0.00289262380125622,-0.000890272204126736,0.013));
#577=CARTESIAN_POINT('',(0.0398573761987438,0.00210972779587326,0.013));
#578=CARTESIAN_POINT('',(0.0398573761987438,0.00210972779587326,0.013));
#579=CARTESIAN_POINT('',(0.0398573761987438,-0.00289027220412673,0.0155));
#580=CARTESIAN_POINT('',(-0.00289262380125622,0.000609727795873258,0.013));
#581=CARTESIAN_POINT('',(-0.00289262380125622,0.000609727795873258,0.0155));
#582=CARTESIAN_POINT('',(0.0403493761987438,-0.00627946639407544,-5.71424418199795E-14));
#583=CARTESIAN_POINT('',(0.040464701803682,-0.00627946664510985,-5.71424418199795E-14));
#584=CARTESIAN_POINT('',(0.0405912093671206,-0.00627396079825526,-5.71424418199795E-14));
#585=CARTESIAN_POINT('',(0.0408762018535603,-0.00624007353260995,-5.71424418199795E-14));
#586=CARTESIAN_POINT('',(0.0410348988744981,-0.00621198038932771,-5.68471051481945E-14));
#587=CARTESIAN_POINT('',(0.0413037015687292,-0.0061343850783368,-5.7291844879348E-14));
#588=CARTESIAN_POINT('',(0.0413984246428933,-0.00610247052886782,-5.71424418199795E-14));
#589=CARTESIAN_POINT('',(0.0415979012780313,-0.00602157032460245,-5.71424418199795E-14));
#590=CARTESIAN_POINT('',(0.0417006198616693,-0.00597332550950762,-5.71966519286038E-14));
#591=CARTESIAN_POINT('',(0.0419081230006599,-0.00585841871743393,-5.70804254557133E-14));
#592=CARTESIAN_POINT('',(0.0420129251223252,-0.0057916988761197,-5.71424418199795E-14));
#593=CARTESIAN_POINT('',(0.042218878975678,-0.0056385550644805,-5.71424418199795E-14));
#594=CARTESIAN_POINT('',(0.0423205044962247,-0.00555140327390627,-5.70847622644033E-14));
#595=CARTESIAN_POINT('',(0.0426010098510883,-0.00527256078325123,-5.725866829287E-14));
#596=CARTESIAN_POINT('',(0.0427566684545617,-0.00506225404858651,-5.725866829287E-14));
#597=CARTESIAN_POINT('',(0.0429928895506238,-0.00464167696349891,-5.70257816662201E-14));
#598=CARTESIAN_POINT('',(0.043070102723259,-0.00444184488023875,-5.70303353153445E-14));
#599=CARTESIAN_POINT('',(0.0431765495468945,-0.00407980052041755,-5.725866829287E-14));
#600=CARTESIAN_POINT('',(0.0432061396696642,-0.00391604298999665,-5.71424418199795E-14));
#601=CARTESIAN_POINT('',(0.0432410474075112,-0.00362598157772997,-5.71424418199795E-14));
#602=CARTESIAN_POINT('',(0.0432465706504526,-0.00349827149777829,-5.71424418199795E-14));
#603=CARTESIAN_POINT('',(0.0432465703886925,-0.00338227220412674,-5.71424418199795E-14));
#604=CARTESIAN_POINT('',(0.0403493761987438,-0.00394549800620459,0.0166070480000009));
#605=CARTESIAN_POINT('',(0.040385645431837,-0.00394549803915022,0.0166070480000009));
#606=CARTESIAN_POINT('',(0.0404218910674665,-0.00394368370047469,0.0166070480000009));
#607=CARTESIAN_POINT('',(0.0404943661490912,-0.00393506606457789,0.0166070480000009));
#608=CARTESIAN_POINT('',(0.0405306047686627,-0.00392828689972439,0.0166070480000012));
#609=CARTESIAN_POINT('',(0.0405848837953507,-0.00391261824751011,0.0166070480000008));
#610=CARTESIAN_POINT('',(0.0406029645622085,-0.00390646790900488,0.0166070480000009));
#611=CARTESIAN_POINT('',(0.0406390233456996,-0.00389184388702236,0.0166070480000009));
#612=CARTESIAN_POINT('',(0.0406566294422255,-0.00388351445885559,0.0166070480000009));
#613=CARTESIAN_POINT('',(0.0406907795597797,-0.00386460357137378,0.016607048000001));
#614=CARTESIAN_POINT('',(0.0407073287294429,-0.00385401920839647,0.0166070480000009));
#615=CARTESIAN_POINT('',(0.0407391273302119,-0.00383037434404322,0.0166070480000009));
#616=CARTESIAN_POINT('',(0.0407544549031922,-0.00381720840521608,0.016607048000001));
#617=CARTESIAN_POINT('',(0.0407967532624939,-0.0037751607963068,0.0166070480000008));
#618=CARTESIAN_POINT('',(0.040820451578731,-0.00374349306738352,0.0166070480000008));
#619=CARTESIAN_POINT('',(0.0408591814585739,-0.00367453670052201,0.016607048000001));
#620=CARTESIAN_POINT('',(0.040873449765027,-0.00363881010658052,0.016607048000001));
#621=CARTESIAN_POINT('',(0.040894818517964,-0.00356613084513959,0.0166070480000008));
#622=CARTESIAN_POINT('',(0.0409019165910939,-0.00352894138506127,0.0166070480000009));
#623=CARTESIAN_POINT('',(0.040910773121487,-0.00345534855052508,0.0166070480000009));
#624=CARTESIAN_POINT('',(0.0409126020368504,-0.00341874851276422,0.0166070480000009));
#625=CARTESIAN_POINT('',(0.0409126020008216,-0.00338227220412674,0.0166070480000009));
#626=CARTESIAN_POINT('',(-0.0490318179912049,-0.00338227220412675,-5.71378881708551E-14));
#627=CARTESIAN_POINT('',(-0.0490318182422394,-0.00349759780906467,-5.71378881708551E-14));
#628=CARTESIAN_POINT('',(-0.0490263123953847,-0.00362410537250392,-5.71378881708551E-14));
#629=CARTESIAN_POINT('',(-0.0489924251297395,-0.00390909785894292,-5.71378881708551E-14));
#630=CARTESIAN_POINT('',(-0.0489643319864577,-0.00406779487988069,-5.69583442910915E-14));
#631=CARTESIAN_POINT('',(-0.048886736675466,-0.00433659757411247,-5.72289611533439E-14));
#632=CARTESIAN_POINT('',(-0.0488548221259974,-0.00443132064827578,-5.70882317113552E-14));
#633=CARTESIAN_POINT('',(-0.0487739219217318,-0.00463079728341467,-5.72040245033767E-14));
#634=CARTESIAN_POINT('',(-0.0487256771066371,-0.00473351586705256,-5.70882317113552E-14));
#635=CARTESIAN_POINT('',(-0.0486107703145635,-0.00494101900604249,-5.72040245033767E-14));
#636=CARTESIAN_POINT('',(-0.048544050473249,-0.00504582112770862,-5.71957845668658E-14));
#637=CARTESIAN_POINT('',(-0.0483909066616103,-0.00525177498106051,-5.70797749344099E-14));
#638=CARTESIAN_POINT('',(-0.0483037548710363,-0.00535340050160723,-5.70797749344099E-14));
#639=CARTESIAN_POINT('',(-0.0480249123803798,-0.00563390585647206,-5.7253897803311E-14));
#640=CARTESIAN_POINT('',(-0.0478146056457157,-0.00578956445994477,-5.71378881708551E-14));
#641=CARTESIAN_POINT('',(-0.0473940285606286,-0.00602578555600668,-5.71378881708551E-14));
#642=CARTESIAN_POINT('',(-0.0471941964773679,-0.00610299872864211,-5.71378881708551E-14));
#643=CARTESIAN_POINT('',(-0.0468321521175473,-0.00620944555227729,-5.71378881708551E-14));
#644=CARTESIAN_POINT('',(-0.0466683945871268,-0.00623903567504707,-5.68379978499456E-14));
#645=CARTESIAN_POINT('',(-0.0463783331748588,-0.00627394341289416,-5.74375616513301E-14));
#646=CARTESIAN_POINT('',(-0.0462506230949083,-0.00627946665583527,-5.69540074824015E-14));
#647=CARTESIAN_POINT('',(-0.0461346238012562,-0.00627946639407543,-5.71378881708551E-14));
#648=CARTESIAN_POINT('',(-0.0466978496033339,-0.00338227220412674,0.0166070480000019));
#649=CARTESIAN_POINT('',(-0.0466978496362796,-0.00341854143721983,0.0166070480000019));
#650=CARTESIAN_POINT('',(-0.0466960352976041,-0.00345478707284952,0.0166070480000019));
#651=CARTESIAN_POINT('',(-0.0466874176617072,-0.00352726215447409,0.0166070480000019));
#652=CARTESIAN_POINT('',(-0.0466806384968542,-0.00356350077404517,0.0166070480000021));
#653=CARTESIAN_POINT('',(-0.0466649698446393,-0.00361777980073379,0.0166070480000018));
#654=CARTESIAN_POINT('',(-0.0466588195061342,-0.00363586056759119,0.0166070480000019));
#655=CARTESIAN_POINT('',(-0.0466441954841517,-0.0036719193510827,0.0166070480000018));
#656=CARTESIAN_POINT('',(-0.046635866055985,-0.0036895254476085,0.0166070480000019));
#657=CARTESIAN_POINT('',(-0.0466169551685031,-0.0037236755651625,0.0166070480000018));
#658=CARTESIAN_POINT('',(-0.0466063708055259,-0.00374022473482583,0.0166070480000018));
#659=CARTESIAN_POINT('',(-0.0465827259411726,-0.00377202333559468,0.0166070480000019));
#660=CARTESIAN_POINT('',(-0.0465695600023456,-0.00378735090857498,0.0166070480000019));
#661=CARTESIAN_POINT('',(-0.0465275123934358,-0.00382964926787684,0.0166070480000018));
#662=CARTESIAN_POINT('',(-0.0464958446645129,-0.00385334758411375,0.0166070480000019));
#663=CARTESIAN_POINT('',(-0.0464268882976515,-0.00389207746395679,0.0166070480000019));
#664=CARTESIAN_POINT('',(-0.04639116170371,-0.00390634577040985,0.0166070480000019));
#665=CARTESIAN_POINT('',(-0.046318482442269,-0.00392771452334678,0.0166070480000019));
#666=CARTESIAN_POINT('',(-0.0462812929821907,-0.00393481259647668,0.0166070480000022));
#667=CARTESIAN_POINT('',(-0.0462077001476545,-0.00394366912686982,0.0166070480000016));
#668=CARTESIAN_POINT('',(-0.0461711001098938,-0.00394549804223318,0.0166070480000021));
#669=CARTESIAN_POINT('',(-0.0461346238012562,-0.00394549800620445,0.0166070480000019));
#670=CARTESIAN_POINT('',(0.0432465703886925,0.00560172779587325,-5.71402734156345E-14));
#671=CARTESIAN_POINT('',(0.043246570639726,0.00571705340081162,-5.6661056055396E-14));
#672=CARTESIAN_POINT('',(0.0432410647928723,0.00584356096424974,-5.71402734156345E-14));
#673=CARTESIAN_POINT('',(0.0432071775272269,0.00612855345068998,-5.71402734156345E-14));
#674=CARTESIAN_POINT('',(0.0431790843839447,0.00628725047162727,-5.71402734156345E-14));
#675=CARTESIAN_POINT('',(0.0431014890729538,0.00655605316585895,-5.71402734156345E-14));
#676=CARTESIAN_POINT('',(0.0430695745234849,0.00665077624002256,-5.71402734156345E-14));
#677=CARTESIAN_POINT('',(0.0429886743192194,0.00685025287516099,-5.71402734156345E-14));
#678=CARTESIAN_POINT('',(0.0429404295041248,0.00695297145879865,-5.71402734156345E-14));
#679=CARTESIAN_POINT('',(0.0428255227120509,0.00716047459778948,-5.71402734156345E-14));
#680=CARTESIAN_POINT('',(0.0427588028707366,0.00726527671945496,-5.70901832752657E-14));
#681=CARTESIAN_POINT('',(0.0426056590590977,0.00747123057280724,-5.71899298751344E-14));
#682=CARTESIAN_POINT('',(0.0425185072685236,0.0075728560933539,-5.71402734156345E-14));
#683=CARTESIAN_POINT('',(0.0422396647778677,0.00785336144821839,-5.71402734156345E-14));
#684=CARTESIAN_POINT('',(0.0420293580432038,0.00800902005169105,-5.71402734156345E-14));
#685=CARTESIAN_POINT('',(0.0416087809581158,0.00824524114775338,-5.71402734156345E-14));
#686=CARTESIAN_POINT('',(0.0414089488748543,0.00832245432038888,-5.71402734156345E-14));
#687=CARTESIAN_POINT('',(0.041046904515036,0.00842890114402354,-5.71402734156345E-14));
#688=CARTESIAN_POINT('',(0.0408831469846139,0.00845849126679355,-5.71402734156345E-14));
#689=CARTESIAN_POINT('',(0.0405930855723468,0.00849339900464071,-5.71402734156345E-14));
#690=CARTESIAN_POINT('',(0.0404653754923954,0.00849892224758167,-5.71402734156345E-14));
#691=CARTESIAN_POINT('',(0.0403493761987438,0.00849892198582194,-5.71402734156345E-14));
#692=CARTESIAN_POINT('',(0.0408573761987438,0.00560172779587325,0.017));
#693=CARTESIAN_POINT('',(0.0408573762265281,0.00563612641599296,0.0170000000000005));
#694=CARTESIAN_POINT('',(0.0408556492354377,0.00567023629546375,0.017));
#695=CARTESIAN_POINT('',(0.0408476295234794,0.00573768284105618,0.017));
#696=CARTESIAN_POINT('',(0.0408413546848886,0.00577102387920683,0.017));
#697=CARTESIAN_POINT('',(0.0408271513264712,0.00582022689815412,0.017));
#698=CARTESIAN_POINT('',(0.0408216106145671,0.00583649417305687,0.017));
#699=CARTESIAN_POINT('',(0.040808554803767,0.00586868620240623,0.017));
#700=CARTESIAN_POINT('',(0.0408011698439443,0.00588427838760747,0.017));
#701=CARTESIAN_POINT('',(0.0407845303886099,0.00591432666740697,0.017));
#702=CARTESIAN_POINT('',(0.0407752742899022,0.00592878761681611,0.017));
#703=CARTESIAN_POINT('',(0.0407546935986841,0.00595646539762873,0.017));
#704=CARTESIAN_POINT('',(0.0407432782953952,0.00596975100920257,0.017));
#705=CARTESIAN_POINT('',(0.0407068336703739,0.00600641297151676,0.017));
#706=CARTESIAN_POINT('',(0.0406793928549024,0.00602698887498116,0.017));
#707=CARTESIAN_POINT('',(0.0406187564534233,0.00606104576487474,0.017));
#708=CARTESIAN_POINT('',(0.0405869128843418,0.00607382468495068,0.017));
#709=CARTESIAN_POINT('',(0.040521080510689,0.00609318034091587,0.017));
#710=CARTESIAN_POINT('',(0.0404868858740356,0.00609974621254375,0.017));
#711=CARTESIAN_POINT('',(0.040418415067241,0.00610798632549349,0.017));
#712=CARTESIAN_POINT('',(0.0403839708535184,0.00610972782656092,0.017));
#713=CARTESIAN_POINT('',(0.0403493761987438,0.00610972779587325,0.017));
#714=CARTESIAN_POINT('',(-0.0461346238012562,0.00849892198582193,-5.71374544899861E-14));
#715=CARTESIAN_POINT('',(-0.0462499494061938,0.00849892223685638,-5.77370182913706E-14));
#716=CARTESIAN_POINT('',(-0.0463764569696336,0.00849341639000169,-5.70338047622965E-14));
#717=CARTESIAN_POINT('',(-0.0466614494560722,0.00845952912435653,-5.72330811215993E-14));
#718=CARTESIAN_POINT('',(-0.0468201464770106,0.0084314359810742,-5.68956774055218E-14));
#719=CARTESIAN_POINT('',(-0.0470889491712418,0.00835384067008329,-5.72330811215993E-14));
#720=CARTESIAN_POINT('',(-0.0471836722454054,0.00832192612061442,-5.70338047622965E-14));
#721=CARTESIAN_POINT('',(-0.047383148880544,0.00824102591634885,-5.72330811215993E-14));
#722=CARTESIAN_POINT('',(-0.0474858674641817,0.00819278110125423,-5.70962548074316E-14));
#723=CARTESIAN_POINT('',(-0.0476933706031723,0.00807787430918036,-5.71955677264313E-14));
#724=CARTESIAN_POINT('',(-0.0477981727248381,0.00801115446786581,-5.71374544899861E-14));
#725=CARTESIAN_POINT('',(-0.0480041265781899,0.00785801065622741,-5.71083978717635E-14));
#726=CARTESIAN_POINT('',(-0.0481057520987372,0.0077708588656528,-5.70962548074316E-14));
#727=CARTESIAN_POINT('',(-0.0483862574536006,0.00749201637499769,-5.72456578668001E-14));
#728=CARTESIAN_POINT('',(-0.0485419160570743,0.0072817096403325,-5.71374544899861E-14));
#729=CARTESIAN_POINT('',(-0.048778137153136,0.006861132555246,-5.71374544899861E-14));
#730=CARTESIAN_POINT('',(-0.0488553503257714,0.00666130047198523,-5.71374544899861E-14));
#731=CARTESIAN_POINT('',(-0.0489617971494069,0.00629925611216417,-5.71374544899861E-14));
#732=CARTESIAN_POINT('',(-0.0489913872721768,0.00613549858174321,-5.71374544899861E-14));
#733=CARTESIAN_POINT('',(-0.0490262950100235,0.00584543716947651,-5.71374544899861E-14));
#734=CARTESIAN_POINT('',(-0.049031818252965,0.00571772708952468,-5.64290367904841E-14));
#735=CARTESIAN_POINT('',(-0.0490318179912049,0.00560172779587326,-5.71374544899861E-14));
#736=CARTESIAN_POINT('',(-0.0461346238012562,0.00610972779587325,0.017));
#737=CARTESIAN_POINT('',(-0.0461690224213758,0.0061097278236587,0.0169999999999994));
#738=CARTESIAN_POINT('',(-0.0462031323008468,0.00610800083256708,0.017));
#739=CARTESIAN_POINT('',(-0.0462705788464391,0.00609998112060893,0.017));
#740=CARTESIAN_POINT('',(-0.04630391988459,0.00609370628201806,0.0170000000000003));
#741=CARTESIAN_POINT('',(-0.046353122903537,0.00607950292360069,0.017));
#742=CARTESIAN_POINT('',(-0.0463693901784398,0.00607396221169656,0.017));
#743=CARTESIAN_POINT('',(-0.0464015822077893,0.00606090640089644,0.017));
#744=CARTESIAN_POINT('',(-0.0464171743929905,0.00605352144107375,0.017));
#745=CARTESIAN_POINT('',(-0.0464472226727898,0.00603688198573932,0.017));
#746=CARTESIAN_POINT('',(-0.0464616836221989,0.00602762588703168,0.017));
#747=CARTESIAN_POINT('',(-0.0464893614030117,0.0060070451958135,0.017));
#748=CARTESIAN_POINT('',(-0.0465026470145856,0.00599562989252468,0.017));
#749=CARTESIAN_POINT('',(-0.0465393089768995,0.00595918526750335,0.017));
#750=CARTESIAN_POINT('',(-0.0465598848803642,0.00593174445203179,0.017));
#751=CARTESIAN_POINT('',(-0.0465939417702577,0.00587110805055288,0.017));
#752=CARTESIAN_POINT('',(-0.0466067206903336,0.00583926448147158,0.017));
#753=CARTESIAN_POINT('',(-0.0466260763462989,0.00577343210781821,0.017));
#754=CARTESIAN_POINT('',(-0.0466326422179269,0.00573923747116523,0.017));
#755=CARTESIAN_POINT('',(-0.0466408823308763,0.0056707666643703,0.017));
#756=CARTESIAN_POINT('',(-0.0466426238319441,0.00563632245064798,0.0170000000000007));
#757=CARTESIAN_POINT('',(-0.0466426238012562,0.00560172779587326,0.017));
#758=MECHANICAL_DESIGN_GEOMETRIC_PRESENTATION_REPRESENTATION('',(#341),#759);
#759=(
GEOMETRIC_REPRESENTATION_CONTEXT(3)
GLOBAL_UNCERTAINTY_ASSIGNED_CONTEXT((#760))
GLOBAL_UNIT_ASSIGNED_CONTEXT((#763,#762,#761))
REPRESENTATION_CONTEXT('Part 1','TOP_LEVEL_ASSEMBLY_PART')
);
#760=UNCERTAINTY_MEASURE_WITH_UNIT(LENGTH_MEASURE(2.E-05),#763,'DISTANCE_ACCURACY_VALUE','Maximum Tolerance applied to model');
#761=(
NAMED_UNIT(*)
SI_UNIT($,.STERADIAN.)
SOLID_ANGLE_UNIT()
);
#762=(
NAMED_UNIT(*)
PLANE_ANGLE_UNIT()
SI_UNIT($,.RADIAN.)
);
#763=(
LENGTH_UNIT()
NAMED_UNIT(*)
SI_UNIT($,.METRE.)
);
#764=PRODUCT_DEFINITION_SHAPE('','',#765);
#765=PRODUCT_DEFINITION('','',#767,#766);
#766=PRODUCT_DEFINITION_CONTEXT('',#773,'design');
#767=PRODUCT_DEFINITION_FORMATION_WITH_SPECIFIED_SOURCE('','',#769,.NOT_KNOWN.);
#768=PRODUCT_RELATED_PRODUCT_CATEGORY('','',(#769));
#769=PRODUCT('Part 1','Part 1','Part 1',(#771));
#770=PRODUCT_CATEGORY('','');
#771=PRODUCT_CONTEXT('',#773,'mechanical');
#772=APPLICATION_PROTOCOL_DEFINITION('international standard','ap242_managed_model_based_3d_engineering',2020,#773);
#773=APPLICATION_CONTEXT('managed model based 3d engineering');
ENDSEC;
END-ISO-10303-21;
