G04 Layer: DrillDrawingLayer*
G04 EasyEDA Pro v2.2.45.4, 2025-12-23 10:37:26*
G04 Gerber Generator version 0.3*
G04 Scale: 100 percent, Rotated: No, Reflected: No*
G04 Dimensions in millimeters*
G04 Leading zeros omitted, absolute positions, 4 integers and 5 decimals*
G04 Generated by one-click*
%FSLAX45Y45*%
%MOMM*%
%AMIconRect*4,1,4,0.28,-0.28,-0.28,-0.28,-0.28,0.28,0.28,0.28,0.28,-0.28,0*4,0,4,0.233333,-0.233333,0.233333,0.233333,-0.233333,0.233333,-0.233333,-0.233333,0.233333,-0.233333,0*%
%ADD10IconRect*%
G75*


G04 Drill Drawing Start*
G54D10*
G01X60500Y-1175309D03*
G01X60500Y-951852D03*
G01X63500Y-566407D03*
G01X63500Y-93172D03*
G01X67027Y-457200D03*
G01X67027Y-395409D03*
G01X67027Y-330200D03*
G01X67027Y-267320D03*
G01X67027Y-203200D03*
G01X125291Y-566407D03*
G01X125291Y-93172D03*
G01X135230Y-457200D03*
G01X135230Y-330200D03*
G01X135230Y-203200D03*
G01X186177Y-1066152D03*
G01X190500Y-566407D03*
G01X190500Y-93172D03*
G01X253380Y-566407D03*
G01X253380Y-93172D03*
G01X313177Y-1175309D03*
G01X313177Y-951852D03*
G01X317500Y-566407D03*
G01X317500Y-93172D03*
G01X512407Y-291859D03*
G01X515277Y-164859D03*
G01X520483Y-415059D03*
G01X552134Y-352912D03*
G01X552134Y-228357D03*
G01X685800Y-553470D03*
G01X685800Y-165100D03*
G01X688767Y-359664D03*
G01X711831Y-823633D03*
G01X787400Y-439246D03*
G01X787400Y-279400D03*
G01X806827Y-1053452D03*
G01X873779Y-553470D03*
G01X873779Y-162533D03*
G01X901700Y-439246D03*
G01X901700Y-279400D03*
G01X901823Y-823633D03*
G01X1002680Y-482166D03*
G01X1002680Y-355600D03*
G01X1003300Y-228600D03*
G01X1060450Y-552450D03*
G01X1065091Y-292100D03*
G01X1066800Y-419100D03*
G01X1066800Y-165100D03*
G01X1206500Y-1134008D03*
G01X1270620Y-685026D03*
G01X1270620Y-88900D03*
G01X1332411Y-685026D03*
G01X1332411Y-88900D03*
G01X1397620Y-685026D03*
G01X1397620Y-88900D03*
G01X1460500Y-685026D03*
G01X1460500Y-88900D03*
G01X1524000Y-546100D03*
G01X1524000Y-419100D03*
G01X1524000Y-292100D03*
G01X1524000Y-165100D03*
G01X1524620Y-685026D03*
G01X1524620Y-88900D03*
G04 Drill Drawing End*

M02*

