G04 Layer: TopSilkscreenLayer*
G04 EasyEDA Pro v2.2.45.4, 2025-12-23 10:37:26*
G04 Gerber Generator version 0.3*
G04 Scale: 100 percent, Rotated: No, Reflected: No*
G04 Dimensions in millimeters*
G04 Leading zeros omitted, absolute positions, 4 integers and 5 decimals*
G04 Generated by one-click*
%FSLAX45Y45*%
%MOMM*%
%ADD10C,0.1778*%
%ADD11C,0.1016*%
%ADD12C,0.127*%
%ADD13C,0.1524*%
%ADD14C,0.254*%
%ADD15C,0.5*%
%ADD16C,0.3048*%
%ADD17C,0.3*%
G75*


G04 Text Start*
G54D10*
G01X1367790Y-733806D02*
G01X1395222Y-805434D01*
G01X1422400Y-733806D02*
G01X1395222Y-805434D01*
G01X1456690Y-733806D02*
G01X1456690Y-805434D01*
G01X1490980Y-733806D02*
G01X1490980Y-805434D01*
G01X1490980Y-733806D02*
G01X1538732Y-805434D01*
G01X1538732Y-733806D02*
G01X1538732Y-805434D01*
G01X339090Y-9906D02*
G01X366522Y-81534D01*
G01X393700Y-9906D02*
G01X366522Y-81534D01*
G01X448310Y-9906D02*
G01X441452Y-13208D01*
G01X434594Y-20066D01*
G01X431292Y-26924D01*
G01X427990Y-37084D01*
G01X427990Y-54102D01*
G01X431292Y-64516D01*
G01X434594Y-71374D01*
G01X441452Y-78232D01*
G01X448310Y-81534D01*
G01X462026Y-81534D01*
G01X468884Y-78232D01*
G01X475742Y-71374D01*
G01X479044Y-64516D01*
G01X482600Y-54102D01*
G01X482600Y-37084D01*
G01X479044Y-26924D01*
G01X475742Y-20066D01*
G01X468884Y-13208D01*
G01X462026Y-9906D01*
G01X448310Y-9906D01*
G01X516890Y-9906D02*
G01X516890Y-60960D01*
G01X520192Y-71374D01*
G01X527050Y-78232D01*
G01X537210Y-81534D01*
G01X544068Y-81534D01*
G01X554228Y-78232D01*
G01X561086Y-71374D01*
G01X564642Y-60960D01*
G01X564642Y-9906D01*
G01X622808Y-9906D02*
G01X622808Y-81534D01*
G01X598932Y-9906D02*
G01X646684Y-9906D01*
G01X415798Y-1119124D02*
G01X412242Y-1112266D01*
G01X405384Y-1105408D01*
G01X398526Y-1102106D01*
G01X385064Y-1102106D01*
G01X378206Y-1105408D01*
G01X371348Y-1112266D01*
G01X367792Y-1119124D01*
G01X364490Y-1129284D01*
G01X364490Y-1146302D01*
G01X367792Y-1156716D01*
G01X371348Y-1163574D01*
G01X378206Y-1170432D01*
G01X385064Y-1173734D01*
G01X398526Y-1173734D01*
G01X405384Y-1170432D01*
G01X412242Y-1163574D01*
G01X415798Y-1156716D01*
G01X415798Y-1146302D01*
G01X398526Y-1146302D02*
G01X415798Y-1146302D01*
G01X450088Y-1102106D02*
G01X450088Y-1173734D01*
G01X450088Y-1102106D02*
G01X497840Y-1173734D01*
G01X497840Y-1102106D02*
G01X497840Y-1173734D01*
G01X532130Y-1102106D02*
G01X532130Y-1173734D01*
G01X532130Y-1102106D02*
G01X556006Y-1102106D01*
G01X566166Y-1105408D01*
G01X573024Y-1112266D01*
G01X576326Y-1119124D01*
G01X579882Y-1129284D01*
G01X579882Y-1146302D01*
G01X576326Y-1156716D01*
G01X573024Y-1163574D01*
G01X566166Y-1170432D01*
G01X556006Y-1173734D01*
G01X532130Y-1173734D01*
G54D11*
G01X1389380Y-1005586D02*
G01X1389380Y-1057148D01*
G01X1440942Y-1005586D02*
G01X1440942Y-1057148D01*
G01X1440942Y-1030224D02*
G01X1435862Y-1025144D01*
G01X1431036Y-1022858D01*
G01X1423670Y-1022858D01*
G01X1418844Y-1025144D01*
G01X1413764Y-1030224D01*
G01X1411478Y-1037590D01*
G01X1411478Y-1042416D01*
G01X1413764Y-1049782D01*
G01X1418844Y-1054862D01*
G01X1423670Y-1057148D01*
G01X1431036Y-1057148D01*
G01X1435862Y-1054862D01*
G01X1440942Y-1049782D01*
G01X1463040Y-1037590D02*
G01X1492504Y-1037590D01*
G01X1492504Y-1032510D01*
G01X1489964Y-1027684D01*
G01X1487424Y-1025144D01*
G01X1482598Y-1022858D01*
G01X1475232Y-1022858D01*
G01X1470406Y-1025144D01*
G01X1465326Y-1030224D01*
G01X1463040Y-1037590D01*
G01X1463040Y-1042416D01*
G01X1465326Y-1049782D01*
G01X1470406Y-1054862D01*
G01X1475232Y-1057148D01*
G01X1482598Y-1057148D01*
G01X1487424Y-1054862D01*
G01X1492504Y-1049782D01*
G01X1544066Y-1022858D02*
G01X1544066Y-1057148D01*
G01X1544066Y-1030224D02*
G01X1538986Y-1025144D01*
G01X1534160Y-1022858D01*
G01X1526794Y-1022858D01*
G01X1521968Y-1025144D01*
G01X1516888Y-1030224D01*
G01X1514602Y-1037590D01*
G01X1514602Y-1042416D01*
G01X1516888Y-1049782D01*
G01X1521968Y-1054862D01*
G01X1526794Y-1057148D01*
G01X1534160Y-1057148D01*
G01X1538986Y-1054862D01*
G01X1544066Y-1049782D01*
G01X1566164Y-1005586D02*
G01X1566164Y-1057148D01*
G01X1351280Y-1081786D02*
G01X1351280Y-1133348D01*
G01X1351280Y-1081786D02*
G01X1368552Y-1081786D01*
G01X1375918Y-1084072D01*
G01X1380744Y-1089152D01*
G01X1383284Y-1093978D01*
G01X1385824Y-1101344D01*
G01X1385824Y-1113790D01*
G01X1383284Y-1121156D01*
G01X1380744Y-1125982D01*
G01X1375918Y-1131062D01*
G01X1368552Y-1133348D01*
G01X1351280Y-1133348D01*
G01X1407922Y-1081786D02*
G01X1410208Y-1084072D01*
G01X1412748Y-1081786D01*
G01X1410208Y-1079246D01*
G01X1407922Y-1081786D01*
G01X1410208Y-1099058D02*
G01X1410208Y-1133348D01*
G01X1447038Y-1099058D02*
G01X1442212Y-1101344D01*
G01X1437132Y-1106424D01*
G01X1434846Y-1113790D01*
G01X1434846Y-1118616D01*
G01X1437132Y-1125982D01*
G01X1442212Y-1131062D01*
G01X1447038Y-1133348D01*
G01X1454404Y-1133348D01*
G01X1459230Y-1131062D01*
G01X1464310Y-1125982D01*
G01X1466596Y-1118616D01*
G01X1466596Y-1113790D01*
G01X1464310Y-1106424D01*
G01X1459230Y-1101344D01*
G01X1454404Y-1099058D01*
G01X1447038Y-1099058D01*
G01X1518158Y-1081786D02*
G01X1518158Y-1133348D01*
G01X1518158Y-1106424D02*
G01X1513078Y-1101344D01*
G01X1508252Y-1099058D01*
G01X1500886Y-1099058D01*
G01X1496060Y-1101344D01*
G01X1490980Y-1106424D01*
G01X1488694Y-1113790D01*
G01X1488694Y-1118616D01*
G01X1490980Y-1125982D01*
G01X1496060Y-1131062D01*
G01X1500886Y-1133348D01*
G01X1508252Y-1133348D01*
G01X1513078Y-1131062D01*
G01X1518158Y-1125982D01*
G01X1540256Y-1113790D02*
G01X1569720Y-1113790D01*
G01X1569720Y-1108710D01*
G01X1567180Y-1103884D01*
G01X1564640Y-1101344D01*
G01X1559814Y-1099058D01*
G01X1552448Y-1099058D01*
G01X1547622Y-1101344D01*
G01X1542542Y-1106424D01*
G01X1540256Y-1113790D01*
G01X1540256Y-1118616D01*
G01X1542542Y-1125982D01*
G01X1547622Y-1131062D01*
G01X1552448Y-1133348D01*
G01X1559814Y-1133348D01*
G01X1564640Y-1131062D01*
G01X1569720Y-1125982D01*
G01X1300480Y-1157986D02*
G01X1300480Y-1209548D01*
G01X1300480Y-1157986D02*
G01X1320292Y-1209548D01*
G01X1339850Y-1157986D02*
G01X1320292Y-1209548D01*
G01X1339850Y-1157986D02*
G01X1339850Y-1209548D01*
G01X1374140Y-1175258D02*
G01X1369314Y-1177544D01*
G01X1364234Y-1182624D01*
G01X1361948Y-1189990D01*
G01X1361948Y-1194816D01*
G01X1364234Y-1202182D01*
G01X1369314Y-1207262D01*
G01X1374140Y-1209548D01*
G01X1381506Y-1209548D01*
G01X1386332Y-1207262D01*
G01X1391412Y-1202182D01*
G01X1393698Y-1194816D01*
G01X1393698Y-1189990D01*
G01X1391412Y-1182624D01*
G01X1386332Y-1177544D01*
G01X1381506Y-1175258D01*
G01X1374140Y-1175258D01*
G01X1445260Y-1157986D02*
G01X1445260Y-1209548D01*
G01X1445260Y-1182624D02*
G01X1440180Y-1177544D01*
G01X1435354Y-1175258D01*
G01X1427988Y-1175258D01*
G01X1423162Y-1177544D01*
G01X1418082Y-1182624D01*
G01X1415796Y-1189990D01*
G01X1415796Y-1194816D01*
G01X1418082Y-1202182D01*
G01X1423162Y-1207262D01*
G01X1427988Y-1209548D01*
G01X1435354Y-1209548D01*
G01X1440180Y-1207262D01*
G01X1445260Y-1202182D01*
G01X1467358Y-1175258D02*
G01X1467358Y-1199642D01*
G01X1469644Y-1207262D01*
G01X1474724Y-1209548D01*
G01X1482090Y-1209548D01*
G01X1486916Y-1207262D01*
G01X1494282Y-1199642D01*
G01X1494282Y-1175258D02*
G01X1494282Y-1209548D01*
G01X1516380Y-1157986D02*
G01X1516380Y-1209548D01*
G01X1538478Y-1189990D02*
G01X1567942Y-1189990D01*
G01X1567942Y-1184910D01*
G01X1565402Y-1180084D01*
G01X1562862Y-1177544D01*
G01X1558036Y-1175258D01*
G01X1550670Y-1175258D01*
G01X1545844Y-1177544D01*
G01X1540764Y-1182624D01*
G01X1538478Y-1189990D01*
G01X1538478Y-1194816D01*
G01X1540764Y-1202182D01*
G01X1545844Y-1207262D01*
G01X1550670Y-1209548D01*
G01X1558036Y-1209548D01*
G01X1562862Y-1207262D01*
G01X1567942Y-1202182D01*
G54D12*
G01X1051306Y-894842D02*
G01X1048512Y-889508D01*
G01X1042924Y-883920D01*
G01X1037336Y-881126D01*
G01X1026414Y-881126D01*
G01X1020826Y-883920D01*
G01X1015238Y-889508D01*
G01X1012444Y-894842D01*
G01X1009650Y-903224D01*
G01X1009650Y-917194D01*
G01X1012444Y-925576D01*
G01X1015238Y-931164D01*
G01X1020826Y-936752D01*
G01X1026414Y-939292D01*
G01X1037336Y-939292D01*
G01X1042924Y-936752D01*
G01X1048512Y-931164D01*
G01X1051306Y-925576D01*
G01X1077468Y-892302D02*
G01X1082802Y-889508D01*
G01X1091184Y-881126D01*
G01X1091184Y-939292D01*
G01X882650Y-17526D02*
G01X882650Y-75692D01*
G01X882650Y-17526D02*
G01X905002Y-75692D01*
G01X927100Y-17526D02*
G01X905002Y-75692D01*
G01X927100Y-17526D02*
G01X927100Y-75692D01*
G01X953262Y-28702D02*
G01X958596Y-25908D01*
G01X966978Y-17526D01*
G01X966978Y-75692D01*
G01X539750Y-804926D02*
G01X539750Y-846582D01*
G01X542544Y-854964D01*
G01X548132Y-860552D01*
G01X556514Y-863092D01*
G01X562102Y-863092D01*
G01X570230Y-860552D01*
G01X575818Y-854964D01*
G01X578612Y-846582D01*
G01X578612Y-804926D01*
G01X604774Y-816102D02*
G01X610108Y-813308D01*
G01X618490Y-804926D01*
G01X618490Y-863092D01*
G01X1191006Y-894842D02*
G01X1188212Y-889508D01*
G01X1182624Y-883920D01*
G01X1177036Y-881126D01*
G01X1166114Y-881126D01*
G01X1160526Y-883920D01*
G01X1154938Y-889508D01*
G01X1152144Y-894842D01*
G01X1149350Y-903224D01*
G01X1149350Y-917194D01*
G01X1152144Y-925576D01*
G01X1154938Y-931164D01*
G01X1160526Y-936752D01*
G01X1166114Y-939292D01*
G01X1177036Y-939292D01*
G01X1182624Y-936752D01*
G01X1188212Y-931164D01*
G01X1191006Y-925576D01*
G01X1219708Y-894842D02*
G01X1219708Y-892302D01*
G01X1222502Y-886714D01*
G01X1225296Y-883920D01*
G01X1230884Y-881126D01*
G01X1242060Y-881126D01*
G01X1247648Y-883920D01*
G01X1250442Y-886714D01*
G01X1253236Y-892302D01*
G01X1253236Y-897636D01*
G01X1250442Y-903224D01*
G01X1244854Y-911606D01*
G01X1217168Y-939292D01*
G01X1256030Y-939292D01*
G01X56642Y-726694D02*
G01X51308Y-729488D01*
G01X45720Y-735076D01*
G01X42926Y-740664D01*
G01X42926Y-751586D01*
G01X45720Y-757174D01*
G01X51308Y-762762D01*
G01X56642Y-765556D01*
G01X65024Y-768350D01*
G01X78994Y-768350D01*
G01X87376Y-765556D01*
G01X92964Y-762762D01*
G01X98552Y-757174D01*
G01X101092Y-751586D01*
G01X101092Y-740664D01*
G01X98552Y-735076D01*
G01X92964Y-729488D01*
G01X87376Y-726694D01*
G01X42926Y-695198D02*
G01X42926Y-664464D01*
G01X65024Y-681228D01*
G01X65024Y-672846D01*
G01X67818Y-667258D01*
G01X70612Y-664464D01*
G01X78994Y-661670D01*
G01X84582Y-661670D01*
G01X92964Y-664464D01*
G01X98552Y-670052D01*
G01X101092Y-678434D01*
G01X101092Y-686816D01*
G01X98552Y-695198D01*
G01X95758Y-697992D01*
G01X90170Y-700532D01*
G04 Text End*

G04 PolygonModel Start*
G54D13*
G01X1103960Y-1181130D02*
G01X1103960Y-1102121D01*
G01X1004240Y-1102121D02*
G01X1004240Y-1181130D01*
G01X1019480Y-1196370D02*
G01X1088720Y-1196370D01*
G01X1103960Y-977870D02*
G01X1103960Y-1056879D01*
G01X1004240Y-1056879D02*
G01X1004240Y-977870D01*
G01X1019480Y-962630D02*
G01X1088720Y-962630D01*
G01X1004240Y-1181130D02*
G03X1019480Y-1196370I15240J0D01*
G01X1088720Y-1196370D02*
G03X1103960Y-1181130I0J15240D01*
G01X1004240Y-977870D02*
G02X1019480Y-962630I15240J0D01*
G01X1088720Y-962630D02*
G02X1103960Y-977870I0J-15240D01*
G54D14*
G01X495699Y-112743D02*
G01X495699Y-101356D01*
G01X495699Y-101356D02*
G01X1092599Y-101356D01*
G01X495699Y-239743D02*
G01X495699Y-216972D01*
G01X495699Y-366743D02*
G01X495699Y-343972D01*
G01X495699Y-493743D02*
G01X495699Y-470972D01*
G01X1092599Y-597464D02*
G01X1092599Y-609356D01*
G01X1092599Y-609356D02*
G01X495699Y-609356D01*
G01X495699Y-609356D02*
G01X495699Y-597972D01*
G01X1092599Y-471480D02*
G01X1092599Y-493232D01*
G01X1092599Y-344480D02*
G01X1092599Y-367251D01*
G01X1092599Y-217480D02*
G01X1092599Y-240251D01*
G01X1092599Y-101356D02*
G01X1092599Y-113251D01*
G54D15*
G01X406397Y-88654D02*
G03X406524Y-113545I127J-12445D01*
G03X406651Y-88654I0J12446D01*
G54D13*
G01X960746Y-1027463D02*
G01X960746Y-849622D01*
G01X652908Y-1027463D02*
G01X652908Y-849622D01*
G01X1256360Y-1181130D02*
G01X1256360Y-1102121D01*
G01X1156640Y-1102121D02*
G01X1156640Y-1181130D01*
G01X1171880Y-1196370D02*
G01X1241120Y-1196370D01*
G01X1256360Y-977870D02*
G01X1256360Y-1056879D01*
G01X1156640Y-1056879D02*
G01X1156640Y-977870D01*
G01X1171880Y-962630D02*
G01X1241120Y-962630D01*
G01X1156640Y-1181130D02*
G03X1171880Y-1196370I15240J0D01*
G01X1241120Y-1196370D02*
G03X1256360Y-1181130I0J15240D01*
G01X1156640Y-977870D02*
G02X1171880Y-962630I15240J0D01*
G01X1241120Y-962630D02*
G02X1256360Y-977870I0J-15240D01*
G01X227660Y-863630D02*
G01X227660Y-784621D01*
G01X127940Y-784621D02*
G01X127940Y-863630D01*
G01X143180Y-878870D02*
G01X212420Y-878870D01*
G01X227660Y-660370D02*
G01X227660Y-739379D01*
G01X127940Y-739379D02*
G01X127940Y-660370D01*
G01X143180Y-645130D02*
G01X212420Y-645130D01*
G01X127940Y-863630D02*
G03X143180Y-878870I15240J0D01*
G01X212420Y-878870D02*
G03X227660Y-863630I0J15240D01*
G01X127940Y-660370D02*
G02X143180Y-645130I15240J0D01*
G01X212420Y-645130D02*
G02X227660Y-660370I0J-15240D01*

G04 Circle Start*
G54D17*
G01X624989Y-1068692D02*
G03X655011Y-1068692I15011J0D01*
G03X624989Y-1068692I-15011J0D01*
G04 Circle End*

M02*

