G04 Layer: TopLayer*
G04 EasyEDA Pro v2.2.45.4, 2025-12-23 10:37:26*
G04 Gerber Generator version 0.3*
G04 Scale: 100 percent, Rotated: No, Reflected: No*
G04 Dimensions in millimeters*
G04 Leading zeros omitted, absolute positions, 4 integers and 5 decimals*
G04 Generated by one-click*
%FSLAX45Y45*%
%MOMM*%
%ADD10R,0.54X0.79009*%
%ADD11R,1.2X0.58001*%
%ADD12R,3.79999X4.39999*%
%ADD13R,0.532X1.07201*%
%ADD14C,0.61*%
%ADD15C,0.2599*%
%ADD16C,0.254*%
%ADD17C,0.508*%
G75*


G04 Rect Start*
G36*
G01X38100Y-571500D02*
G01X38100Y-88900D01*
G02X63500Y-63500I25400J0D01*
G01X317500Y-63500D01*
G02X342900Y-88900I0J-25400D01*
G01X342900Y-571500D01*
G02X317500Y-596900I-25400J0D01*
G01X63500Y-596900D01*
G02X38100Y-571500I0J25400D01*
G37*
G36*
G01X1245220Y-685800D02*
G01X1245220Y-88900D01*
G02X1270620Y-63500I25400J0D01*
G01X1524620Y-63500D01*
G02X1550020Y-88900I0J-25400D01*
G01X1550020Y-685800D01*
G02X1524620Y-711200I-25400J0D01*
G01X1270620Y-711200D01*
G02X1245220Y-685800I0J25400D01*
G37*
G36*
G01X971550Y-609600D02*
G01X971550Y-101600D01*
G02X996950Y-76200I25400J0D01*
G01X1314450Y-76200D01*
G02X1339850Y-101600I0J-25400D01*
G01X1339850Y-609600D01*
G02X1314450Y-635000I-25400J0D01*
G01X996950Y-635000D01*
G02X971550Y-609600I0J25400D01*
G37*
G36*
G01X292100Y-457200D02*
G01X292100Y-127000D01*
G02X317500Y-101600I25400J0D01*
G01X571500Y-101600D01*
G02X596900Y-127000I0J-25400D01*
G01X596900Y-457200D01*
G02X571500Y-482600I-25400J0D01*
G01X317500Y-482600D01*
G02X292100Y-457200I0J25400D01*
G37*
G36*
G01X33777Y-1180452D02*
G01X33777Y-951852D01*
G02X59177Y-926452I25400J0D01*
G01X313177Y-926452D01*
G02X338577Y-951852I0J-25400D01*
G01X338577Y-1180452D01*
G02X313177Y-1205852I-25400J0D01*
G01X59177Y-1205852D01*
G02X33777Y-1180452I0J25400D01*
G37*
G04 Rect End*

G04 Pad Start*
G54D10*
G01X1054100Y-1134008D03*
G01X1054100Y-1024992D03*
G54D11*
G01X512407Y-545859D03*
G01X512407Y-418859D03*
G01X512407Y-291859D03*
G01X512407Y-164859D03*
G01X1062393Y-165367D03*
G01X1062393Y-292367D03*
G01X1062393Y-419367D03*
G01X1062393Y-546341D03*
G54D12*
G01X852000Y-355600D03*
G54D13*
G01X711831Y-1053452D03*
G01X806827Y-1053452D03*
G01X901823Y-1053452D03*
G01X901823Y-823633D03*
G01X806827Y-823633D03*
G01X711831Y-823633D03*
G54D10*
G01X1206500Y-1134008D03*
G01X1206500Y-1024992D03*
G01X177800Y-816508D03*
G01X177800Y-707492D03*
G04 Pad End*

G04 Via Start*
G54D14*
G01X901823Y-823633D03*
G01X711831Y-823633D03*
G01X1060450Y-552450D03*
G01X520483Y-415059D03*
G01X806827Y-1053452D03*
G01X1206500Y-1134008D03*
G01X552134Y-228357D03*
G01X552134Y-352912D03*
G01X515277Y-164859D03*
G01X512407Y-291859D03*
G01X1524620Y-88900D03*
G01X1270620Y-88900D03*
G01X1460500Y-88900D03*
G01X1397620Y-88900D03*
G01X1332411Y-88900D03*
G01X1524620Y-685026D03*
G01X1270620Y-685026D03*
G01X1460500Y-685026D03*
G01X1397620Y-685026D03*
G01X1332411Y-685026D03*
G01X317500Y-93172D03*
G01X63500Y-93172D03*
G01X253380Y-93172D03*
G01X190500Y-93172D03*
G01X125291Y-93172D03*
G01X317500Y-566407D03*
G01X63500Y-566407D03*
G01X253380Y-566407D03*
G01X190500Y-566407D03*
G01X125291Y-566407D03*
G01X67027Y-203200D03*
G01X67027Y-457200D03*
G01X67027Y-267320D03*
G01X67027Y-330200D03*
G01X67027Y-395409D03*
G01X1524000Y-165100D03*
G01X1524000Y-292100D03*
G01X1524000Y-419100D03*
G01X1524000Y-546100D03*
G01X1003300Y-228600D03*
G01X1066800Y-165100D03*
G01X1066800Y-419100D03*
G01X1065091Y-292100D03*
G01X1002680Y-482166D03*
G01X313177Y-951852D03*
G01X186177Y-1066152D03*
G01X685800Y-165100D03*
G01X685800Y-553470D03*
G01X873779Y-553470D03*
G01X873779Y-162533D03*
G01X688767Y-359664D03*
G01X787400Y-279400D03*
G01X787400Y-439246D03*
G01X901700Y-279400D03*
G01X1002680Y-355600D03*
G01X60500Y-1175309D03*
G01X313177Y-1175309D03*
G01X60500Y-951852D03*
G01X901700Y-439246D03*
G01X135230Y-203200D03*
G01X135230Y-330200D03*
G01X135230Y-457200D03*
G04 Via End*

G04 Track Start*
G54D16*
G01X806827Y-790303D02*
G01X806827Y-823633D01*
G01X758657Y-742133D02*
G01X806827Y-790303D01*
G01X1054100Y-1024992D02*
G01X1025639Y-1053452D01*
G01X901823Y-1053452D01*
G01X939980Y-1134953D02*
G01X940924Y-1134008D01*
G01X1054100Y-1134008D01*
G01X768671Y-1134953D02*
G01X939980Y-1134953D01*
G01X711831Y-1053452D02*
G01X711831Y-1078114D01*
G01X768671Y-1134953D01*
G01X678633Y-742133D02*
G01X758657Y-742133D01*
G54D17*
G01X1206500Y-1024992D02*
G01X1206500Y-622300D01*
G54D16*
G01X1054100Y-1024992D02*
G01X1117600Y-961492D01*
G01X1117600Y-609600D01*
G54D17*
G01X177800Y-707492D02*
G01X177800Y-482600D01*
G01X177800Y-816508D02*
G01X176229Y-818080D01*
G01X176229Y-952500D01*
G54D16*
G01X897052Y-355600D02*
G01X852000Y-355600D01*
G01X512406Y-575906D02*
G01X678633Y-742133D01*
G01X512406Y-545859D02*
G01X512406Y-575906D01*
G01X901700Y-388893D02*
G01X901700Y-360248D01*
G01X897052Y-355600D01*
G01X1062393Y-546341D02*
G01X1059149Y-546341D01*
G01X901700Y-388893D01*
G04 Track End*

M02*

