G04 Layer: BottomSolderMaskLayer*
G04 EasyEDA Pro v2.2.45.4, 2025-12-23 10:37:26*
G04 Gerber Generator version 0.3*
G04 Scale: 100 percent, Rotated: No, Reflected: No*
G04 Dimensions in millimeters*
G04 Leading zeros omitted, absolute positions, 4 integers and 5 decimals*
G04 Generated by one-click*
%FSLAX45Y45*%
%MOMM*%
%ADD10C,0.254*%
%ADD11C,0.2955*%
G75*


G04 Rect Start*
G36*
G01X1245220Y-685800D02*
G01X1245220Y-88900D01*
G02X1270620Y-63500I25400J0D01*
G01X1524620Y-63500D01*
G02X1550020Y-88900I0J-25400D01*
G01X1550020Y-685800D01*
G02X1524620Y-711200I-25400J0D01*
G01X1270620Y-711200D01*
G02X1245220Y-685800I0J25400D01*
G37*
G36*
G01X38100Y-571500D02*
G01X38100Y-88900D01*
G02X63500Y-63500I25400J0D01*
G01X317500Y-63500D01*
G02X342900Y-88900I0J-25400D01*
G01X342900Y-571500D01*
G02X317500Y-596900I-25400J0D01*
G01X63500Y-596900D01*
G02X38100Y-571500I0J25400D01*
G37*
G36*
G01X292100Y-457200D02*
G01X292100Y-127000D01*
G02X317500Y-101600I25400J0D01*
G01X571500Y-101600D01*
G02X596900Y-127000I0J-25400D01*
G01X596900Y-457200D01*
G02X571500Y-482600I-25400J0D01*
G01X317500Y-482600D01*
G02X292100Y-457200I0J25400D01*
G37*
G36*
G01X971550Y-609600D02*
G01X971550Y-101600D01*
G02X996950Y-76200I25400J0D01*
G01X1314450Y-76200D01*
G02X1339850Y-101600I0J-25400D01*
G01X1339850Y-609600D01*
G02X1314450Y-635000I-25400J0D01*
G01X996950Y-635000D01*
G02X971550Y-609600I0J25400D01*
G37*
G36*
G01X33777Y-1180452D02*
G01X33777Y-951852D01*
G02X59177Y-926452I25400J0D01*
G01X313177Y-926452D01*
G02X338577Y-951852I0J-25400D01*
G01X338577Y-1180452D01*
G02X313177Y-1205852I-25400J0D01*
G01X59177Y-1205852D01*
G02X33777Y-1180452I0J25400D01*
G37*
G04 Rect End*
G54D10*

M02*

