G04 Layer: BottomSilkscreenLayer*
G04 EasyEDA Pro v2.2.45.4, 2025-12-23 10:37:26*
G04 Gerber Generator version 0.3*
G04 Scale: 100 percent, Rotated: No, Reflected: No*
G04 Dimensions in millimeters*
G04 Leading zeros omitted, absolute positions, 4 integers and 5 decimals*
G04 Generated by one-click*
%FSLAX45Y45*%
%MOMM*%
%ADD10C,0.1778*%
%ADD11C,0.127*%
%ADD12C,0.3200*%
G75*


G04 Text Start*
G54D10*
G01X1540510Y-733806D02*
G01X1513078Y-805434D01*
G01X1485900Y-733806D02*
G01X1513078Y-805434D01*
G01X1451610Y-733806D02*
G01X1451610Y-805434D01*
G01X1417320Y-733806D02*
G01X1417320Y-805434D01*
G01X1417320Y-733806D02*
G01X1369568Y-805434D01*
G01X1369568Y-733806D02*
G01X1369568Y-805434D01*
G01X384810Y-632206D02*
G01X357378Y-703834D01*
G01X330200Y-632206D02*
G01X357378Y-703834D01*
G01X275590Y-632206D02*
G01X282448Y-635508D01*
G01X289306Y-642366D01*
G01X292608Y-649224D01*
G01X295910Y-659384D01*
G01X295910Y-676402D01*
G01X292608Y-686816D01*
G01X289306Y-693674D01*
G01X282448Y-700532D01*
G01X275590Y-703834D01*
G01X261874Y-703834D01*
G01X255016Y-700532D01*
G01X248158Y-693674D01*
G01X244856Y-686816D01*
G01X241300Y-676402D01*
G01X241300Y-659384D01*
G01X244856Y-649224D01*
G01X248158Y-642366D01*
G01X255016Y-635508D01*
G01X261874Y-632206D01*
G01X275590Y-632206D01*
G01X207010Y-632206D02*
G01X207010Y-683260D01*
G01X203708Y-693674D01*
G01X196850Y-700532D01*
G01X186690Y-703834D01*
G01X179832Y-703834D01*
G01X169672Y-700532D01*
G01X162814Y-693674D01*
G01X159258Y-683260D01*
G01X159258Y-632206D01*
G01X101092Y-632206D02*
G01X101092Y-703834D01*
G01X124968Y-632206D02*
G01X77216Y-632206D01*
G01X524002Y-1119124D02*
G01X527558Y-1112266D01*
G01X534416Y-1105408D01*
G01X541274Y-1102106D01*
G01X554736Y-1102106D01*
G01X561594Y-1105408D01*
G01X568452Y-1112266D01*
G01X572008Y-1119124D01*
G01X575310Y-1129284D01*
G01X575310Y-1146302D01*
G01X572008Y-1156716D01*
G01X568452Y-1163574D01*
G01X561594Y-1170432D01*
G01X554736Y-1173734D01*
G01X541274Y-1173734D01*
G01X534416Y-1170432D01*
G01X527558Y-1163574D01*
G01X524002Y-1156716D01*
G01X524002Y-1146302D01*
G01X541274Y-1146302D02*
G01X524002Y-1146302D01*
G01X489712Y-1102106D02*
G01X489712Y-1173734D01*
G01X489712Y-1102106D02*
G01X441960Y-1173734D01*
G01X441960Y-1102106D02*
G01X441960Y-1173734D01*
G01X407670Y-1102106D02*
G01X407670Y-1173734D01*
G01X407670Y-1102106D02*
G01X383794Y-1102106D01*
G01X373634Y-1105408D01*
G01X366776Y-1112266D01*
G01X363474Y-1119124D01*
G01X359918Y-1129284D01*
G01X359918Y-1146302D01*
G01X363474Y-1156716D01*
G01X366776Y-1163574D01*
G01X373634Y-1170432D01*
G01X383794Y-1173734D01*
G01X407670Y-1173734D01*
G54D11*
G01X920750Y-706374D02*
G01X920750Y-781558D01*
G01X920750Y-706374D02*
G01X892048Y-781558D01*
G01X863600Y-706374D02*
G01X892048Y-781558D01*
G01X863600Y-706374D02*
G01X863600Y-781558D01*
G01X815848Y-731520D02*
G01X822960Y-735076D01*
G01X830072Y-742188D01*
G01X833628Y-752856D01*
G01X833628Y-759968D01*
G01X830072Y-770636D01*
G01X822960Y-778002D01*
G01X815848Y-781558D01*
G01X805180Y-781558D01*
G01X798068Y-778002D01*
G01X790956Y-770636D01*
G01X787400Y-759968D01*
G01X787400Y-752856D01*
G01X790956Y-742188D01*
G01X798068Y-735076D01*
G01X805180Y-731520D01*
G01X815848Y-731520D01*
G01X714756Y-706374D02*
G01X714756Y-781558D01*
G01X714756Y-742188D02*
G01X721868Y-735076D01*
G01X728980Y-731520D01*
G01X739648Y-731520D01*
G01X746760Y-735076D01*
G01X753872Y-742188D01*
G01X757428Y-752856D01*
G01X757428Y-759968D01*
G01X753872Y-770636D01*
G01X746760Y-778002D01*
G01X739648Y-781558D01*
G01X728980Y-781558D01*
G01X721868Y-778002D01*
G01X714756Y-770636D01*
G01X684784Y-731520D02*
G01X684784Y-767080D01*
G01X681228Y-778002D01*
G01X674116Y-781558D01*
G01X663448Y-781558D01*
G01X656336Y-778002D01*
G01X645668Y-767080D01*
G01X645668Y-731520D02*
G01X645668Y-781558D01*
G01X615696Y-706374D02*
G01X615696Y-781558D01*
G01X585724Y-752856D02*
G01X543052Y-752856D01*
G01X543052Y-745744D01*
G01X546608Y-738632D01*
G01X550164Y-735076D01*
G01X557276Y-731520D01*
G01X567944Y-731520D01*
G01X575056Y-735076D01*
G01X582168Y-742188D01*
G01X585724Y-752856D01*
G01X585724Y-759968D01*
G01X582168Y-770636D01*
G01X575056Y-778002D01*
G01X567944Y-781558D01*
G01X557276Y-781558D01*
G01X550164Y-778002D01*
G01X543052Y-770636D01*
G01X920750Y-604774D02*
G01X920750Y-679958D01*
G01X920750Y-604774D02*
G01X895858Y-604774D01*
G01X884936Y-608330D01*
G01X877824Y-615442D01*
G01X874268Y-622808D01*
G01X870712Y-633476D01*
G01X870712Y-651256D01*
G01X874268Y-661924D01*
G01X877824Y-669036D01*
G01X884936Y-676402D01*
G01X895858Y-679958D01*
G01X920750Y-679958D01*
G01X840740Y-604774D02*
G01X837184Y-608330D01*
G01X833628Y-604774D01*
G01X837184Y-601218D01*
G01X840740Y-604774D01*
G01X837184Y-629920D02*
G01X837184Y-679958D01*
G01X785876Y-629920D02*
G01X792988Y-633476D01*
G01X800100Y-640588D01*
G01X803656Y-651256D01*
G01X803656Y-658368D01*
G01X800100Y-669036D01*
G01X792988Y-676402D01*
G01X785876Y-679958D01*
G01X775208Y-679958D01*
G01X768096Y-676402D01*
G01X760984Y-669036D01*
G01X757428Y-658368D01*
G01X757428Y-651256D01*
G01X760984Y-640588D01*
G01X768096Y-633476D01*
G01X775208Y-629920D01*
G01X785876Y-629920D01*
G01X684784Y-604774D02*
G01X684784Y-679958D01*
G01X684784Y-640588D02*
G01X691896Y-633476D01*
G01X699008Y-629920D01*
G01X709676Y-629920D01*
G01X716788Y-633476D01*
G01X723900Y-640588D01*
G01X727456Y-651256D01*
G01X727456Y-658368D01*
G01X723900Y-669036D01*
G01X716788Y-676402D01*
G01X709676Y-679958D01*
G01X699008Y-679958D01*
G01X691896Y-676402D01*
G01X684784Y-669036D01*
G01X654812Y-651256D02*
G01X612140Y-651256D01*
G01X612140Y-644144D01*
G01X615696Y-637032D01*
G01X619252Y-633476D01*
G01X626364Y-629920D01*
G01X637032Y-629920D01*
G01X644144Y-633476D01*
G01X651256Y-640588D01*
G01X654812Y-651256D01*
G01X654812Y-658368D01*
G01X651256Y-669036D01*
G01X644144Y-676402D01*
G01X637032Y-679958D01*
G01X626364Y-679958D01*
G01X619252Y-676402D01*
G01X612140Y-669036D01*
G01X920750Y-503174D02*
G01X920750Y-578358D01*
G01X848106Y-503174D02*
G01X848106Y-578358D01*
G01X848106Y-538988D02*
G01X855218Y-531876D01*
G01X862330Y-528320D01*
G01X872998Y-528320D01*
G01X880110Y-531876D01*
G01X887222Y-538988D01*
G01X890778Y-549656D01*
G01X890778Y-556768D01*
G01X887222Y-567436D01*
G01X880110Y-574802D01*
G01X872998Y-578358D01*
G01X862330Y-578358D01*
G01X855218Y-574802D01*
G01X848106Y-567436D01*
G01X818134Y-549656D02*
G01X775462Y-549656D01*
G01X775462Y-542544D01*
G01X779018Y-535432D01*
G01X782574Y-531876D01*
G01X789686Y-528320D01*
G01X800354Y-528320D01*
G01X807466Y-531876D01*
G01X814578Y-538988D01*
G01X818134Y-549656D01*
G01X818134Y-556768D01*
G01X814578Y-567436D01*
G01X807466Y-574802D01*
G01X800354Y-578358D01*
G01X789686Y-578358D01*
G01X782574Y-574802D01*
G01X775462Y-567436D01*
G01X702818Y-528320D02*
G01X702818Y-578358D01*
G01X702818Y-538988D02*
G01X709930Y-531876D01*
G01X717042Y-528320D01*
G01X727710Y-528320D01*
G01X734822Y-531876D01*
G01X741934Y-538988D01*
G01X745490Y-549656D01*
G01X745490Y-556768D01*
G01X741934Y-567436D01*
G01X734822Y-574802D01*
G01X727710Y-578358D01*
G01X717042Y-578358D01*
G01X709930Y-574802D01*
G01X702818Y-567436D01*
G01X672846Y-503174D02*
G01X672846Y-578358D01*
G04 Text End*

M02*

